<?xml version="1.0" encoding="utf-8"?>
<!-- Generator: Adobe Illustrator 27.0.0, SVG Export Plug-In . SVG Version: 6.00 Build 0)  -->
<svg version="1.1" id="图层_1" xmlns="http://www.w3.org/2000/svg" xmlns:xlink="http://www.w3.org/1999/xlink" x="0px" y="0px"
	 viewBox="0 0 595.28 841.89" style="enable-background:new 0 0 595.28 841.89;" xml:space="preserve">
<path d="M488.24,517.21c2.12-0.46,3.18-2.33,3.18-5.63c0-6.3-2.19-11.73-6.56-16.3c-4.37-4.57-9.69-6.85-15.96-6.85
	c-0.2,0-0.39,0.02-0.58,0.02v12.64c1.43,0.27,2.71,0.99,3.81,2.17c1.44,1.53,2.15,3.31,2.15,5.34c0,0.36-0.54,0.62-1.61,0.78
	c-5.09,0.75-8.84,1.13-11.26,1.13c-0.91,0-1.37-0.44-1.37-1.32c0-2.15,0.62-4.03,1.86-5.63c1.11-1.44,2.49-2.24,4.11-2.48v-12.5
	c-6.11,0.57-11.12,3-15.02,7.3c-0.59,0.65-1.13,1.32-1.64,2.02h-8.47c0.05-0.54,0.11-1.14,0.18-1.82c0.2-1.73,0.29-3.07,0.29-4.01
	c0-0.78-0.91-1.17-2.74-1.17c-2.91,0-5.92,0.86-9.05,2.57c-3.13,1.71-4.47,2.57-4.01,2.57c-0.42,0-0.72-1.03-0.88-3.08
	c-0.16-2.06-0.54-3.08-1.13-3.08c-0.16,0-2.82,0.51-7.98,1.52c-3.46,0.52-6.09,0.88-7.88,1.08c-0.49,0.16-0.73,0.49-0.73,0.98
	c0,0.2,0.03,0.44,0.1,0.73c0.33,1.17,0.62,2.41,0.87,3.73h-8.12c0.14-0.99,0.28-1.98,0.45-2.95c0.1-0.55,0.15-0.9,0.15-1.03
	c0-0.33-0.24-0.59-0.73-0.78c-1.4-0.46-3.72-1.01-6.95-1.66c-3.39-0.68-5.69-1.03-6.9-1.03c-0.52,0-0.97,0.79-1.35,2.37
	c-0.38,1.58-0.71,2.37-1,2.37c-0.1,0-0.21-0.08-0.34-0.24c-2.97-3.59-7.02-5.38-12.14-5.38c-7.38,0-13.18,2.38-17.42,7.15
	c-0.34,0.38-0.64,0.79-0.95,1.18h-8.83c-0.09-2.53-0.24-4.22-0.45-5.05c-0.23-0.91-0.78-1.37-1.66-1.37c-1.5,0-3.76,0.05-6.78,0.15
	c-3.02,0.1-5.28,0.15-6.78,0.15c-0.65,0-0.98,0.57-0.98,1.71c0,10.31-0.07,16.09-0.2,17.33c-0.1,0.88-0.91,2.74-2.45,5.58
	c-1.6,2.97-2.69,4.46-3.28,4.46c-0.59,0-1.62-1.47-3.08-4.41c-1.21-2.45-1.99-4.23-2.35-5.33c-0.26-0.88-0.39-2.99-0.39-6.31
	c0-1.24,0.08-3.12,0.25-5.65c0.16-2.53,0.24-4.41,0.24-5.65c0-0.91-0.36-1.42-1.08-1.52c-2.38-0.1-4.19-0.13-5.43-0.1h-1.27h-0.1
	l-2.01,0.05c-2.71,0.03-4.52,0.05-5.43,0.05c-0.75,0-1.13,0.51-1.13,1.52c0,0.95,0.09,2.39,0.27,4.33c0.18,1.94,0.27,3.4,0.27,4.38
	c0,4.7-0.2,7.64-0.59,8.83c-0.39,1.19-1.22,3.01-2.5,5.46c-1.57,2.9-2.64,4.36-3.23,4.36c-0.39,0-1.43-1.48-3.11-4.43
	c-1.68-2.95-2.55-4.79-2.62-5.51c-0.2-1.89-0.29-4.81-0.29-8.76c0-0.95,0.03-2.39,0.1-4.33c0.06-1.94,0.1-3.38,0.1-4.33
	c0-1.08-0.37-1.61-1.13-1.61c-1.5,0-3.75-0.05-6.75-0.15c-3-0.1-5.25-0.15-6.76-0.15c-0.91,0-1.48,0.42-1.71,1.27
	c-0.22,0.92-0.37,2.96-0.44,6.08h-4.16c0.02-0.74,0.1-1.74,0.24-3.04c0.16-1.5,0.24-2.62,0.24-3.38c0-0.49-0.36-0.73-1.08-0.73
	c-1.18,0-2.92,0.05-5.24,0.15c-2.32,0.1-4.05,0.15-5.19,0.15c-0.95,0-1.42-0.8-1.42-2.4c0-1.34,0.11-3.33,0.32-5.97
	c0.21-2.64,0.32-4.62,0.32-5.92c0-0.49-0.41-0.77-1.22-0.83c-0.72-0.08-1.38-0.16-2.02-0.24v-25.32c4.18,3.08,9.2,4.64,15.09,4.64
	c7.41,0,13.39-2.32,17.94-6.95c4.55-4.63,6.83-10.67,6.83-18.11c0-4.39-0.83-8.28-2.45-11.7h5.52c0.07,1.83,0.17,3.4,0.31,4.7
	c0.03,0.52,0.51,0.78,1.42,0.78c0.23,0,0.6-0.02,1.1-0.05c0.51-0.03,0.87-0.05,1.1-0.05c1.3,0,1.96,0.47,1.96,1.42v26.97
	c0,1.14,0.55,1.81,1.66,2.01c1.11,0.2,3.51,0.29,7.19,0.29c4.44,0,7.21-0.07,8.32-0.2c0.91-0.1,1.37-0.49,1.37-1.18
	c0-2.32-0.12-5.55-0.34-9.69c-0.26-4.6-0.41-7.83-0.44-9.69c-0.1-4.37-0.2-7.78-0.29-10.23c2.02,0.2,4.8,0.29,8.32,0.29
	c0.85,0,1.27-0.39,1.27-1.17c0-1.53-0.02-3.84-0.05-6.93c-0.03-3.08-0.05-5.39-0.05-6.93c0-0.72-0.49-1.08-1.47-1.08
	s-2.43,0.03-4.36,0.1c-1.93,0.07-3.35,0.1-4.26,0.1c-0.16-0.95-0.24-1.96-0.24-3.03c0-3.43,0.54-5.73,1.61-6.9
	c0.62-0.68,2.27-1.17,4.94-1.47c2.32-0.23,3.47-0.73,3.47-1.52c0-0.65-0.15-1.58-0.44-2.79c-0.39-1.57-0.6-2.48-0.64-2.74
	c-0.49-2.87-0.87-5.04-1.13-6.51c-0.13-0.39-0.52-0.59-1.18-0.59c-3.38,0-6.42,0.33-9.15,0.94v-11.24
	c7.38-0.01,13.35-2.32,17.89-6.95c4.32-4.4,6.57-10.08,6.78-17.01h3.64c0.11,6.94,2.41,12.65,6.93,17.11
	c4.63,4.57,10.54,6.85,17.72,6.85c7.41,0,13.39-2.32,17.94-6.95c4.32-4.4,6.57-10.08,6.78-17.01h6.47
	c-0.02,1.92-0.04,4.08-0.06,6.51c-0.07,5.79-0.1,10.14-0.1,13.04c0,1.31,0,2.01,0,2.1c0.1,0.72,0.51,1.16,1.22,1.32
	c1.08,0.26,3.57,0.39,7.49,0.39c3.82,0,6.46-0.13,7.93-0.39c0.81-0.13,1.22-0.54,1.22-1.22c0-0.91-0.05-2.2-0.15-3.87
	c-0.1-1.83-0.15-3.12-0.15-3.87c-0.06-4.76-0.1-11.6-0.1-20.51c0-10.83,0.42-23.3,1.27-37.39l0.05-0.88
	c0.06-0.69-0.31-1.03-1.13-1.03h-17.47c-0.85,0-1.27,0.36-1.27,1.08c0,0.2,0.03,0.47,0.1,0.83c0.72,5.22,1.13,11.44,1.22,18.65
	c-0.03-1.21-0.05,5.04-0.05,18.74c0,1.21-0.01,2.7-0.02,4.43h-6.48c-0.19-6.93-2.45-12.62-6.81-17.04
	c-4.32-4.36-9.9-6.63-16.71-6.88v15.15c2.05,0.25,3.75,1.21,5.11,2.89c1.6,1.97,2.4,4.25,2.4,6.83c0,2.64-0.77,4.91-2.3,6.8
	c-1.66,2.02-3.77,3.03-6.31,3.03c-2.58,0-4.7-1.01-6.36-3.03c-1.57-1.89-2.35-4.16-2.35-6.8c0-2.61,0.78-4.86,2.35-6.75
	c1.4-1.7,3.12-2.67,5.16-2.95v-15.17c-7.04,0.22-12.69,2.55-16.91,7.03c-4.13,4.39-6.31,10.03-6.6,16.89h-3.67
	c-0.19-6.93-2.45-12.62-6.81-17.04c-4.32-4.36-9.9-6.63-16.71-6.88v15.15c2.05,0.25,3.75,1.21,5.11,2.89c1.6,1.97,2.4,4.25,2.4,6.83
	c0,2.64-0.77,4.91-2.3,6.8c-1.66,2.02-3.77,3.03-6.31,3.03c-2.58,0-4.7-1.01-6.36-3.03c-1.57-1.89-2.35-4.16-2.35-6.8
	c0-2.61,0.78-4.86,2.35-6.75c1.4-1.7,3.12-2.67,5.16-2.95v-15.17c-7.04,0.22-12.69,2.55-16.91,7.03c-4.13,4.39-6.31,10.03-6.6,16.89
	h-5.72l0.03-10.45c0-4.08-1.52-7.29-4.55-9.64c-2.81-2.19-6.3-3.28-10.47-3.28c-2.41,0-4.91,0.57-7.49,1.71
	c-1.73,0.78-3.54,1.84-5.43,3.18c-1.6,1.14-2.43,1.71-2.5,1.71c-0.33,0-0.49-0.33-0.49-0.98c0-4.27,0.1-10.1,0.29-17.47
	c0-0.75,0.06-2.17,0.2-4.26c0.13-1.79,0.19-3.21,0.19-4.26c0-0.68-0.26-1.03-0.78-1.03l-8.86,1.03c-0.42,0.07-1.94,0.15-4.55,0.24
	c-1.96,0.07-3.44,0.24-4.45,0.54c-0.49,0.16-0.73,0.49-0.73,0.98c0,0.2,0.05,0.51,0.15,0.93c0.42,2.02,0.72,4.45,0.88,7.29
	c0.07,2.45,0.15,4.89,0.24,7.34c0.11,3.48,0.2,7.43,0.26,11.83h-7.29c0.9-3.16,1.35-4.96,1.35-5.37c0-0.42-0.42-0.86-1.27-1.32
	c-3.69-2.09-7.96-3.13-12.82-3.13c-7.15,0-13.06,2.44-17.74,7.32c-4.68,4.88-7.02,10.89-7.02,18.04c0,0.37,0.03,0.73,0.05,1.1h-5.5
	c-0.1-3.4-1.24-6.82-3.46-10.25c-0.2-0.26-2.37-3-6.51-8.22c-2.35-2.9-3.52-5.35-3.52-7.34c0-2.22,1.06-3.95,3.18-5.19
	c1.76-1.08,3.82-1.62,6.17-1.62c0.33,0,0.8,0.05,1.42,0.15c0.62,0.1,1.06,0.15,1.32,0.15c0.59,0,0.88-0.28,0.88-0.83
	c0-0.13-0.05-0.29-0.15-0.49c-3.1-6.23-5.07-10.54-5.92-12.92c-0.29-0.78-0.68-1.17-1.17-1.17c-0.2,0-0.47,0.02-0.83,0.05
	c-6.56,0.98-12.09,3.1-16.59,6.36c-5.51,3.95-8.27,8.91-8.27,14.88c0,4.11,1.13,7.86,3.38,11.26c0.33,0.49,2.41,2.95,6.26,7.39
	c2.22,2.61,3.33,4.98,3.33,7.1c0,3.33-1.7,5.84-5.09,7.54c-1.53,0.75-4.67,1.66-9.4,2.74c-0.49,0.1-0.73,0.33-0.73,0.68
	c0,1.01,1.29,3.81,3.87,8.39c2.58,4.58,4.24,6.88,4.99,6.88c0.16,0,0.37-0.02,0.64-0.05c7.02-1.14,12.97-3.8,17.86-7.98
	c5.13-4.35,7.87-9.5,8.28-15.45h5.69c0.59,5.83,2.86,10.81,6.83,14.91c4.67,4.83,10.59,7.24,17.77,7.24c1.92,0,4.45-0.34,7.59-1.03
	c4.05-0.88,6.07-1.94,6.07-3.18s-0.38-3.75-1.13-7.54c-0.88-4.14-1.6-6.22-2.15-6.22c0.1,0-0.75,0.37-2.55,1.1
	c-1.79,0.73-3.41,1.1-4.85,1.1c-3.03,0-5.5-0.86-7.39-2.57c-1.89-1.71-2.84-4.07-2.84-7.07c0-2.9,0.86-5.23,2.59-6.97
	c1.73-1.74,4.05-2.62,6.95-2.62c1.21,0,2.78,0.26,4.72,0.78c1.94,0.52,2.93,0.78,2.96,0.78c0.29,0,0.58-0.34,0.86-1.03
	c0.23-0.56,0.67-2.01,1.33-4.33h7.89c0.04,3.87,0.06,8.06,0.06,12.6c0,2.58-0.02,6.45-0.05,11.62c-0.03,5.17-0.05,9.05-0.05,11.62
	c0,0.88,0.59,1.45,1.76,1.71c1.17,0.26,3.1,0.39,5.77,0.39c4.67,0,7.51-0.07,8.52-0.2c1.01-0.13,1.52-0.8,1.52-2.01
	c0-1.57-0.03-3.92-0.1-7.07c-0.06-3.15-0.1-5.51-0.1-7.07v-12.09c0-1.24,0.96-2.43,2.89-3.57c1.76-1.04,3.29-1.57,4.6-1.57
	c3.88,0,5.82,1.91,5.82,5.73c0,2.81-0.05,7.03-0.15,12.68c-0.1,5.64-0.15,9.87-0.15,12.68c0,1.21,0.54,1.91,1.62,2.1
	c1.4,0.26,3.9,0.39,7.49,0.39c3.72,0,6.1-0.07,7.14-0.2c0.91-0.13,1.37-0.77,1.37-1.91l0.06-21.27h5.68
	c0.11,6.94,2.41,12.65,6.93,17.11c4.14,4.08,9.29,6.32,15.46,6.76v11.96c-3.99,1.25-7.21,3.24-9.59,6.01
	c-2.19,2.55-3.28,6.62-3.28,12.24c0,1.47,0.08,3.51,0.24,6.12c-1.14,0.07-2.27,0.15-3.38,0.24c-1.24,0.26-1.86,1-1.86,2.2
	c0,2.07,0.02,3.94,0.06,5.63h-6.56c-0.92-1.52-2.01-2.94-3.29-4.24c-4.32-4.36-9.9-6.63-16.71-6.88v15.15
	c2.05,0.25,3.75,1.21,5.11,2.89c1.6,1.97,2.4,4.25,2.4,6.83c0,2.64-0.77,4.91-2.3,6.8c-1.66,2.02-3.77,3.03-6.31,3.03
	c-2.58,0-4.7-1.01-6.36-3.03c-1.57-1.89-2.35-4.16-2.35-6.8c0-2.61,0.78-4.86,2.35-6.75c1.4-1.7,3.12-2.67,5.16-2.95v-15.17
	c-7.04,0.22-12.69,2.55-16.91,7.03c-4.44,4.72-6.66,10.86-6.66,18.43c0,7.18,2.32,13.05,6.95,17.62c0.1,0.1,0.22,0.19,0.33,0.29
	v26.96c-1.29-0.16-2.36-0.3-3.21-0.41c-0.72-0.06-2.01-0.31-3.87-0.73c-1.63-0.39-2.89-0.59-3.77-0.59c-0.72,0-1.08,1.89-1.08,5.68
	c0-0.2,0.06,1.81,0.2,6.02c0.06,2.67,0,4.63-0.2,5.87c-0.1,0.62-0.73,0.95-1.91,0.98c-2.09,0.07-3.13,0.43-3.13,1.08
	c0,0.68,0.04,1.73,0.12,3.13c0.03,0.55,0.06,1.03,0.08,1.47h-2.36c-0.03-2.69-0.04-4.77-0.04-6.17c0-0.72-0.49-1.08-1.47-1.08
	c-0.98,0-2.43,0.03-4.36,0.1c-1.93,0.06-3.35,0.1-4.26,0.1c-0.16-0.95-0.24-1.96-0.24-3.03c0-3.43,0.54-5.73,1.61-6.9
	c0.62-0.68,2.27-1.17,4.94-1.47c2.32-0.23,3.48-0.73,3.48-1.52c0-0.65-0.15-1.58-0.44-2.79c-0.39-1.57-0.6-2.48-0.64-2.74
	c-0.49-2.87-0.86-5.04-1.13-6.51c-0.13-0.39-0.52-0.59-1.17-0.59c-9.69,0-16.71,2.53-21.05,7.59c-2.19,2.55-3.28,6.62-3.28,12.24
	c0,1.47,0.08,3.51,0.24,6.12c-1.14,0.07-2.27,0.15-3.38,0.25c-1.24,0.26-1.86,0.99-1.86,2.2c0,1.91,0.02,3.65,0.06,5.24h-6.78
	c-0.87-1.37-1.89-2.66-3.07-3.85c-4.31-4.36-9.9-6.64-16.71-6.88v15.15c2.05,0.25,3.75,1.21,5.11,2.89c1.6,1.97,2.4,4.25,2.4,6.83
	c0,2.64-0.77,4.91-2.3,6.8c-1.66,2.02-3.77,3.03-6.31,3.03c-2.58,0-4.7-1.01-6.36-3.03c-1.57-1.89-2.35-4.16-2.35-6.8
	c0-2.61,0.78-4.86,2.35-6.75c1.4-1.7,3.12-2.68,5.16-2.95v-15.17c-7.04,0.22-12.69,2.55-16.91,7.03
	c-4.44,4.72-6.66,10.86-6.66,18.43c0,0.7,0.04,1.37,0.08,2.04h-5.57c0.02-0.36,0.06-0.7,0.06-1.07c0-3.56-1.16-7.13-3.47-10.72
	c-0.2-0.26-2.37-3-6.51-8.22c-2.35-2.9-3.52-5.35-3.52-7.34c0-2.22,1.06-3.95,3.18-5.19c1.76-1.08,3.82-1.61,6.17-1.61
	c0.33,0,0.8,0.05,1.42,0.15c0.62,0.1,1.06,0.15,1.32,0.15c0.59,0,0.88-0.28,0.88-0.83c0-0.13-0.05-0.29-0.15-0.49
	c-3.1-6.23-5.07-10.54-5.92-12.92c-0.29-0.78-0.68-1.17-1.17-1.17c-0.2,0-0.47,0.02-0.83,0.05c-6.56,0.98-12.09,3.1-16.59,6.36
	c-5.51,3.95-8.27,8.91-8.27,14.88c0,4.11,1.13,7.86,3.38,11.26c0.33,0.49,2.41,2.95,6.26,7.39c2.22,2.61,3.33,4.98,3.33,7.1
	c0,3.33-1.7,5.84-5.09,7.54c-1.53,0.75-4.67,1.66-9.4,2.74c-0.49,0.1-0.73,0.33-0.73,0.68c0,1.01,1.29,3.81,3.87,8.39
	c2.58,4.58,4.24,6.88,4.99,6.88c0.16,0,0.37-0.01,0.64-0.05c7.02-1.14,12.97-3.8,17.86-7.98c4.68-3.97,7.37-8.61,8.13-13.92h5.98
	c0.74,5.34,2.93,9.86,6.65,13.52c4.63,4.57,10.54,6.85,17.72,6.85c7.41,0,13.39-2.32,17.94-6.95c4.55-4.63,6.83-10.67,6.83-18.11
	c0-4.56-0.88-8.59-2.62-12.09h5.68c0.07,2,0.18,3.7,0.32,5.09c0.03,0.52,0.51,0.78,1.42,0.78c0.23,0,0.6-0.02,1.1-0.05
	c0.51-0.03,0.87-0.05,1.1-0.05c1.3,0,1.96,0.47,1.96,1.42v26.97c0,1.14,0.55,1.81,1.66,2.01c1.11,0.2,3.51,0.29,7.19,0.29
	c4.44,0,7.21-0.06,8.32-0.19c0.91-0.1,1.37-0.49,1.37-1.18c0-2.32-0.11-5.55-0.34-9.69c-0.26-4.6-0.41-7.83-0.44-9.69
	c-0.1-4.37-0.2-7.78-0.29-10.23c2.02,0.2,4.8,0.29,8.32,0.29c0.85,0,1.27-0.39,1.27-1.17c0-1.3-0.01-3.2-0.04-5.63h2.38
	c-0.01,0.5-0.05,1.17-0.12,2c-0.08,1.08-0.12,1.88-0.12,2.4c0,0.88,0.62,1.32,1.86,1.32c0.13,0,0.34-0.01,0.64-0.05
	c0.29,0,0.51,0,0.64,0c1.66,0,2.5,0.72,2.5,2.15c0,2.15-0.08,5.39-0.24,9.72c-0.16,4.32-0.24,7.56-0.24,9.72
	c0,7.21,4.71,10.82,14.14,10.82c5.12,0,9.79-1.16,14-3.47c0.88-0.49,1.42-0.86,1.61-1.13c0.2-0.26,0.29-0.86,0.29-1.79
	c0-0.93,0.12-2.39,0.37-4.38c0.24-1.99,0.37-3.47,0.37-4.45c0-0.72-0.34-1.08-1.03-1.08c-0.62,0-1.69,0.19-3.21,0.56
	c-1.52,0.38-2.68,0.56-3.5,0.56c-2.58,0-4.31-0.7-5.19-2.1c-0.62-1.04-0.93-2.94-0.93-5.67c0-0.75-0.02-1.91-0.05-3.48
	c0-1.53,0-2.69,0-3.47c0-1.44,0.25-2.15,0.73-2.15H259c0.65,0,1.75,0.02,3.28,0.07s2.63,0.07,3.28,0.07c0.95,0,1.42-0.34,1.42-1.03
	c0-0.78-0.02-1.92-0.05-3.43c-0.01-0.64-0.02-1.2-0.03-1.71h4.11c-0.01,0.92-0.02,1.88-0.02,2.94c0,4.99,0.42,8.53,1.27,10.62
	c1.37,3.26,3.64,7.6,6.8,13.02c3.88,6.62,6.64,10.17,8.27,10.62c0.72,0.2,2.32,0.29,4.8,0.29c3.49,0,5.63-0.42,6.41-1.27
	c1.5-1.63,4.31-6.12,8.42-13.46c3.88,7.15,6.75,11.63,8.61,13.46c0.52,0.49,1.09,0.82,1.71,0.98c0.75,0.2,2.55,0.29,5.38,0.29
	c3.43,0,5.58-0.47,6.46-1.42c1.3-1.4,3.69-5.02,7.15-10.86c3.39-5.68,5.51-9.56,6.36-11.65c0.82-1.99,1.22-5.53,1.22-10.62
	c0-1.46-0.01-2.78-0.03-3.96h7.36c-2.34,3.84-3.58,8.47-3.73,13.89h16.62c0.03-2.73,0.88-4.99,2.58-6.75c1.73-1.79,4-2.69,6.8-2.69
	c2.81,0,5.08,0.91,6.83,2.72c1.75,1.81,2.62,4.1,2.62,6.87c0,2.81-0.88,5.12-2.64,6.93c-1.76,1.81-4.03,2.72-6.8,2.72
	c-2.61,0-4.83-0.95-6.66-2.84c-1.47-1.52-2.33-3.28-2.62-5.29h-16.74c0.12,6.27,2.07,11.7,5.9,16.25c4.18,5.02,9.45,7.54,15.81,7.54
	c4.18,0,8.09-1.84,11.75-5.53c0.42-0.42,0.77-0.7,1.03-0.83c0.29,0.04,0.55,0.99,0.76,2.87c0.21,1.88,0.63,2.81,1.25,2.81
	c5.22,0,9.85-0.15,13.9-0.44c1.14-0.1,1.71-0.8,1.71-2.1c0-2.48-0.15-6.2-0.44-11.16c-0.29-4.96-0.44-8.69-0.44-11.21
	c0-4.76,0.28-9.34,0.83-13.75h8.76c0.59,3.82,0.88,8.21,0.88,13.16c0,2.61-0.02,6.52-0.05,11.72c-0.03,5.2-0.05,9.11-0.05,11.72
	c0,0.95,0.54,1.48,1.61,1.61c1.86,0.2,4.34,0.29,7.44,0.29c3.23,0,5.63-0.06,7.19-0.19c1.08-0.1,1.61-0.54,1.61-1.32
	c0-0.91-0.07-2.31-0.2-4.18c-0.13-1.88-0.2-3.29-0.2-4.23c0-1.4-0.02-3.53-0.07-6.39c-0.05-2.85-0.07-4.98-0.07-6.39
	c0-2.58,0.49-4.29,1.47-5.14c0.98-0.85,2.82-1.27,5.53-1.27c0.59,0,1.48,0.04,2.67,0.12c1.19,0.08,2.1,0.12,2.72,0.12
	c1.4,0,2.11-0.64,2.11-1.91c0-0.62-0.03-1.89-0.1-3.82c-0.03-1.57-0.05-2.82-0.05-3.77c0-0.04,0.01-0.1,0.01-0.14h7.28
	c-2.38,4.06-3.57,8.85-3.57,14.38c0,7.7,2.45,13.85,7.34,18.45c4.76,4.54,11.03,6.8,18.79,6.8c8.38,0,14.57-2.14,18.55-6.41
	c0.49-0.52,0.73-0.9,0.73-1.13c0-0.82-0.81-2.72-2.42-5.73c-1.61-3-2.77-4.66-3.45-4.99c-1.24,0.78-2.48,1.57-3.72,2.35
	c-2.94,1.57-5.86,2.35-8.76,2.35c-2.41,0-4.57-0.46-6.46-1.37c-2.32-1.11-3.7-2.72-4.16-4.85c7.64-0.59,13.38-1.09,17.23-1.52
	C484.51,517.63,487.89,517.27,488.24,517.21z"/>
</svg>
