<?xml version="1.0" encoding="utf-8"?>
<!-- Generator: Adobe Illustrator 27.0.0, SVG Export Plug-In . SVG Version: 6.00 Build 0)  -->
<svg version="1.1" id="图层_1" xmlns="http://www.w3.org/2000/svg" xmlns:xlink="http://www.w3.org/1999/xlink" x="0px" y="0px"
	 viewBox="0 0 595.28 841.89" style="enable-background:new 0 0 595.28 841.89;" xml:space="preserve">
<path d="M461.57,503.74c1.82-0.39,2.74-2.01,2.74-4.84c0-5.41-1.88-10.09-5.64-14.02c-3.76-3.93-8.33-5.89-13.72-5.89
	c-0.17,0-0.33,0.02-0.5,0.02v10.87c1.23,0.23,2.33,0.85,3.28,1.86c1.23,1.32,1.85,2.85,1.85,4.59c0,0.31-0.46,0.53-1.39,0.67
	c-4.38,0.65-7.61,0.97-9.68,0.97c-0.79,0-1.18-0.38-1.18-1.14c0-1.85,0.53-3.47,1.6-4.84c0.96-1.24,2.15-1.93,3.53-2.14v-10.75
	c-5.26,0.49-9.56,2.58-12.92,6.28c-0.51,0.56-0.97,1.14-1.41,1.74h-7.29c0.04-0.47,0.09-0.98,0.15-1.57
	c0.17-1.49,0.25-2.64,0.25-3.45c0-0.67-0.79-1.01-2.36-1.01c-2.5,0-5.09,0.74-7.79,2.21c-2.69,1.47-3.85,2.21-3.45,2.21
	c-0.37,0-0.62-0.88-0.76-2.65c-0.14-1.77-0.46-2.65-0.97-2.65c-0.14,0-2.43,0.44-6.86,1.31c-2.98,0.45-5.23,0.76-6.78,0.93
	c-0.42,0.14-0.63,0.42-0.63,0.84c0,0.17,0.03,0.38,0.08,0.63c0.28,1,0.53,2.08,0.75,3.21h-6.99c0.12-0.85,0.24-1.7,0.39-2.54
	c0.08-0.48,0.13-0.77,0.13-0.88c0-0.28-0.21-0.51-0.63-0.67c-1.21-0.39-3.2-0.87-5.98-1.43c-2.92-0.59-4.9-0.88-5.93-0.88
	c-0.45,0-0.84,0.68-1.16,2.04c-0.32,1.36-0.61,2.04-0.86,2.04c-0.08,0-0.18-0.07-0.29-0.21c-2.55-3.09-6.03-4.63-10.44-4.63
	c-6.34,0-11.34,2.05-14.99,6.15c-0.29,0.33-0.55,0.68-0.81,1.02h-7.59c-0.07-2.17-0.2-3.63-0.39-4.35c-0.2-0.78-0.67-1.18-1.43-1.18
	c-1.29,0-3.24,0.04-5.83,0.13c-2.6,0.08-4.54,0.13-5.83,0.13c-0.56,0-0.84,0.49-0.84,1.47c0,8.87-0.06,13.84-0.17,14.9
	c-0.08,0.76-0.78,2.36-2.1,4.8c-1.38,2.56-2.32,3.83-2.82,3.83c-0.51,0-1.39-1.26-2.65-3.79c-1.04-2.11-1.71-3.63-2.02-4.59
	c-0.22-0.76-0.34-2.57-0.34-5.43c0-1.07,0.07-2.69,0.21-4.86c0.14-2.17,0.21-3.79,0.21-4.86c0-0.78-0.31-1.22-0.93-1.31
	c-2.05-0.08-3.61-0.11-4.67-0.08h-1.09h-0.08l-1.73,0.04c-2.33,0.03-3.89,0.04-4.67,0.04c-0.65,0-0.97,0.44-0.97,1.31
	c0,0.82,0.08,2.06,0.23,3.72c0.15,1.67,0.23,2.93,0.23,3.77c0,4.04-0.17,6.57-0.5,7.6c-0.34,1.02-1.05,2.59-2.15,4.69
	c-1.35,2.5-2.27,3.75-2.78,3.75c-0.34,0-1.23-1.27-2.67-3.81c-1.45-2.54-2.2-4.12-2.25-4.74c-0.17-1.63-0.25-4.14-0.25-7.53
	c0-0.81,0.03-2.05,0.08-3.73c0.06-1.67,0.08-2.91,0.08-3.72c0-0.93-0.32-1.39-0.97-1.39c-1.29,0-3.23-0.04-5.81-0.13
	c-2.58-0.08-4.52-0.13-5.81-0.13c-0.79,0-1.28,0.37-1.47,1.09c-0.19,0.79-0.32,2.55-0.38,5.23h-3.57c0.02-0.64,0.08-1.5,0.21-2.62
	c0.14-1.29,0.21-2.26,0.21-2.9c0-0.42-0.31-0.63-0.93-0.63c-1.01,0-2.51,0.04-4.5,0.13c-1.99,0.08-3.48,0.13-4.46,0.13
	c-0.81,0-1.22-0.69-1.22-2.06c0-1.15,0.09-2.86,0.28-5.13c0.18-2.27,0.27-3.97,0.27-5.09c0-0.42-0.35-0.66-1.05-0.72
	c-0.62-0.07-1.19-0.14-1.74-0.21v-21.78c3.59,2.65,7.91,3.99,12.98,3.99c6.37,0,11.51-1.99,15.43-5.98
	c3.92-3.98,5.87-9.18,5.87-15.58c0-3.78-0.71-7.12-2.11-10.06h4.75c0.06,1.57,0.15,2.93,0.27,4.04c0.03,0.45,0.43,0.67,1.22,0.67
	c0.2,0,0.51-0.01,0.95-0.04c0.43-0.03,0.75-0.04,0.95-0.04c1.12,0,1.68,0.41,1.68,1.22v23.2c0,0.98,0.48,1.56,1.43,1.73
	c0.95,0.17,3.02,0.25,6.19,0.25c3.82,0,6.2-0.06,7.16-0.17c0.78-0.08,1.18-0.42,1.18-1.01c0-1.99-0.1-4.77-0.3-8.33
	c-0.22-3.96-0.35-6.74-0.38-8.34c-0.08-3.76-0.17-6.69-0.25-8.8c1.74,0.17,4.13,0.25,7.16,0.25c0.73,0,1.09-0.34,1.09-1.01
	c0-1.32-0.02-3.3-0.04-5.96c-0.03-2.65-0.04-4.64-0.04-5.96c0-0.62-0.42-0.93-1.26-0.93s-2.09,0.03-3.75,0.08
	c-1.66,0.06-2.88,0.08-3.66,0.08c-0.14-0.81-0.21-1.68-0.21-2.61c0-2.95,0.46-4.93,1.39-5.94c0.53-0.59,1.95-1.01,4.25-1.26
	c1.99-0.2,2.99-0.63,2.99-1.3c0-0.56-0.13-1.36-0.38-2.4c-0.34-1.35-0.52-2.13-0.55-2.36c-0.42-2.47-0.74-4.34-0.97-5.6
	c-0.11-0.34-0.45-0.51-1.01-0.51c-2.91,0-5.52,0.28-7.87,0.81v-9.67c6.35-0.01,11.48-2,15.39-5.98c3.72-3.78,5.65-8.67,5.83-14.63
	h3.13c0.09,5.97,2.07,10.88,5.96,14.71c3.98,3.93,9.06,5.89,15.24,5.89c6.37,0,11.51-1.99,15.43-5.98
	c3.72-3.78,5.65-8.67,5.83-14.63h5.56c-0.01,1.65-0.03,3.51-0.06,5.6c-0.06,4.98-0.08,8.72-0.08,11.22c0,1.12,0,1.73,0,1.81
	c0.08,0.62,0.43,1,1.05,1.14c0.93,0.22,3.07,0.34,6.44,0.34c3.28,0,5.56-0.11,6.82-0.34c0.7-0.11,1.05-0.46,1.05-1.05
	c0-0.79-0.04-1.89-0.13-3.33c-0.08-1.57-0.13-2.68-0.13-3.33c-0.06-4.1-0.08-9.98-0.08-17.64c0-9.32,0.36-20.04,1.09-32.16
	l0.04-0.76c0.06-0.59-0.27-0.88-0.97-0.88h-15.03c-0.73,0-1.09,0.31-1.09,0.93c0,0.17,0.03,0.41,0.08,0.72
	c0.62,4.49,0.97,9.84,1.05,16.04c-0.03-1.04-0.04,4.34-0.04,16.12c0,1.04-0.01,2.32-0.02,3.81h-5.57
	c-0.17-5.96-2.1-10.85-5.86-14.65c-3.71-3.75-8.51-5.71-14.37-5.91v13.03c1.76,0.22,3.23,1.04,4.4,2.48
	c1.37,1.7,2.06,3.66,2.06,5.87c0,2.27-0.66,4.22-1.98,5.85c-1.43,1.74-3.24,2.61-5.43,2.61c-2.22,0-4.04-0.87-5.47-2.61
	c-1.35-1.63-2.02-3.58-2.02-5.85c0-2.25,0.67-4.18,2.02-5.81c1.2-1.46,2.68-2.3,4.44-2.53v-13.04c-6.06,0.19-10.92,2.19-14.54,6.04
	c-3.55,3.77-5.43,8.63-5.68,14.53h-3.16c-0.17-5.96-2.1-10.85-5.86-14.65c-3.71-3.75-8.51-5.71-14.37-5.91v13.03
	c1.76,0.22,3.23,1.04,4.4,2.48c1.37,1.7,2.06,3.66,2.06,5.87c0,2.27-0.66,4.22-1.98,5.85c-1.43,1.74-3.24,2.61-5.43,2.61
	c-2.22,0-4.04-0.87-5.47-2.61c-1.35-1.63-2.02-3.58-2.02-5.85c0-2.25,0.67-4.18,2.02-5.81c1.2-1.46,2.68-2.3,4.44-2.53v-13.04
	c-6.06,0.19-10.92,2.19-14.54,6.04c-3.55,3.77-5.43,8.63-5.68,14.53h-4.92l0.03-8.99c0-3.51-1.3-6.27-3.92-8.29
	c-2.41-1.88-5.42-2.82-9.01-2.82c-2.08,0-4.22,0.49-6.44,1.47c-1.49,0.67-3.04,1.59-4.67,2.74c-1.38,0.98-2.09,1.47-2.15,1.47
	c-0.28,0-0.42-0.28-0.42-0.84c0-3.68,0.08-8.69,0.25-15.03c0-0.65,0.06-1.87,0.17-3.66c0.11-1.54,0.17-2.76,0.17-3.66
	c0-0.59-0.22-0.88-0.67-0.88l-7.62,0.88c-0.36,0.06-1.67,0.13-3.91,0.21c-1.68,0.06-2.96,0.21-3.83,0.46
	c-0.42,0.14-0.63,0.42-0.63,0.84c0,0.17,0.04,0.44,0.13,0.8c0.36,1.74,0.62,3.83,0.76,6.27c0.06,2.1,0.13,4.21,0.21,6.31
	c0.1,3,0.17,6.39,0.22,10.18h-6.27c0.77-2.72,1.16-4.27,1.16-4.62c0-0.36-0.36-0.74-1.09-1.14c-3.17-1.8-6.85-2.69-11.03-2.69
	c-6.15,0-11.23,2.1-15.26,6.29c-4.03,4.2-6.04,9.37-6.04,15.51c0,0.32,0.03,0.63,0.04,0.94h-4.73c-0.08-2.93-1.07-5.86-2.97-8.82
	c-0.17-0.22-2.04-2.58-5.6-7.07c-2.02-2.5-3.03-4.6-3.03-6.31c0-1.91,0.91-3.4,2.74-4.46c1.52-0.93,3.28-1.39,5.3-1.39
	c0.28,0,0.69,0.04,1.22,0.13c0.53,0.08,0.91,0.13,1.14,0.13c0.5,0,0.76-0.24,0.76-0.72c0-0.11-0.04-0.25-0.13-0.42
	c-2.67-5.36-4.36-9.06-5.09-11.11c-0.25-0.67-0.59-1.01-1.01-1.01c-0.17,0-0.41,0.01-0.72,0.04c-5.64,0.84-10.4,2.67-14.27,5.47
	c-4.74,3.4-7.11,7.66-7.11,12.8c0,3.54,0.97,6.76,2.9,9.68c0.28,0.42,2.08,2.54,5.39,6.36c1.91,2.25,2.86,4.28,2.86,6.1
	c0,2.86-1.46,5.02-4.38,6.48c-1.32,0.65-4.01,1.43-8.08,2.36c-0.42,0.08-0.63,0.28-0.63,0.59c0,0.87,1.11,3.28,3.33,7.22
	c2.22,3.94,3.65,5.91,4.29,5.91c0.14,0,0.32-0.01,0.55-0.04c6.03-0.98,11.16-3.27,15.36-6.86c4.41-3.74,6.77-8.17,7.13-13.29h4.9
	c0.51,5.01,2.46,9.29,5.87,12.83c4.01,4.15,9.11,6.23,15.28,6.23c1.66,0,3.83-0.29,6.53-0.88c3.48-0.76,5.22-1.67,5.22-2.74
	c0-1.07-0.32-3.23-0.97-6.48c-0.76-3.56-1.38-5.35-1.85-5.35c0.08,0-0.65,0.32-2.19,0.95c-1.54,0.63-2.93,0.95-4.17,0.95
	c-2.61,0-4.73-0.74-6.36-2.21c-1.63-1.47-2.44-3.5-2.44-6.08c0-2.5,0.74-4.5,2.23-6c1.49-1.5,3.48-2.25,5.98-2.25
	c1.04,0,2.39,0.22,4.06,0.67c1.67,0.45,2.52,0.67,2.55,0.67c0.25,0,0.5-0.29,0.74-0.88c0.2-0.48,0.58-1.73,1.14-3.72h6.78
	c0.04,3.33,0.05,6.93,0.05,10.83c0,2.22-0.01,5.55-0.04,10c-0.03,4.45-0.04,7.78-0.04,10c0,0.76,0.51,1.25,1.52,1.47
	c1.01,0.22,2.67,0.34,4.97,0.34c4.01,0,6.46-0.06,7.33-0.17c0.87-0.11,1.3-0.69,1.3-1.73c0-1.35-0.03-3.37-0.08-6.08
	c-0.06-2.71-0.08-4.74-0.08-6.08v-10.4c0-1.07,0.83-2.09,2.48-3.07c1.52-0.9,2.83-1.35,3.96-1.35c3.34,0,5.01,1.64,5.01,4.92
	c0,2.41-0.04,6.05-0.13,10.9c-0.08,4.86-0.13,8.49-0.13,10.9c0,1.04,0.47,1.64,1.39,1.81c1.21,0.22,3.35,0.34,6.44,0.34
	c3.2,0,5.25-0.06,6.14-0.17c0.79-0.11,1.18-0.66,1.18-1.64l0.05-18.29h4.89c0.09,5.97,2.07,10.88,5.96,14.71
	c3.56,3.51,7.99,5.44,13.3,5.81v10.29c-3.43,1.08-6.2,2.79-8.25,5.17c-1.88,2.19-2.82,5.7-2.82,10.52c0,1.26,0.07,3.02,0.21,5.26
	c-0.98,0.06-1.95,0.13-2.9,0.21c-1.07,0.22-1.6,0.86-1.6,1.89c0,1.78,0.02,3.39,0.06,4.85h-5.64c-0.79-1.31-1.73-2.53-2.83-3.65
	c-3.71-3.75-8.51-5.71-14.37-5.91v13.03c1.76,0.22,3.23,1.04,4.4,2.48c1.37,1.7,2.06,3.66,2.06,5.87c0,2.27-0.66,4.22-1.98,5.85
	c-1.43,1.74-3.24,2.61-5.43,2.61c-2.22,0-4.04-0.87-5.47-2.61c-1.35-1.63-2.02-3.58-2.02-5.85c0-2.25,0.67-4.18,2.02-5.81
	c1.2-1.46,2.68-2.3,4.44-2.53v-13.04c-6.06,0.19-10.92,2.19-14.54,6.04c-3.82,4.06-5.73,9.34-5.73,15.85
	c0,6.17,1.99,11.23,5.98,15.15c0.09,0.09,0.19,0.16,0.28,0.25v23.19c-1.11-0.14-2.03-0.26-2.76-0.36c-0.62-0.06-1.73-0.27-3.33-0.63
	c-1.4-0.34-2.48-0.51-3.24-0.51c-0.62,0-0.93,1.63-0.93,4.88c0-0.17,0.06,1.56,0.17,5.18c0.06,2.3,0,3.98-0.17,5.05
	c-0.08,0.53-0.63,0.82-1.64,0.84c-1.8,0.06-2.69,0.37-2.69,0.93c0,0.59,0.03,1.49,0.11,2.69c0.03,0.48,0.05,0.89,0.06,1.27h-2.03
	c-0.02-2.32-0.04-4.1-0.04-5.31c0-0.62-0.42-0.93-1.26-0.93c-0.84,0-2.09,0.03-3.75,0.08c-1.66,0.06-2.88,0.08-3.66,0.08
	c-0.14-0.81-0.21-1.68-0.21-2.61c0-2.95,0.46-4.93,1.39-5.94c0.53-0.59,1.95-1.01,4.25-1.26c1.99-0.2,2.99-0.63,2.99-1.31
	c0-0.56-0.13-1.36-0.38-2.4c-0.34-1.35-0.52-2.13-0.55-2.36c-0.42-2.47-0.74-4.34-0.97-5.6c-0.11-0.34-0.45-0.51-1.01-0.51
	c-8.33,0-14.37,2.18-18.1,6.52c-1.88,2.19-2.82,5.7-2.82,10.52c0,1.26,0.07,3.02,0.21,5.26c-0.98,0.06-1.95,0.13-2.9,0.21
	c-1.07,0.22-1.6,0.86-1.6,1.89c0,1.64,0.02,3.14,0.05,4.51h-5.83c-0.75-1.18-1.63-2.28-2.64-3.31c-3.71-3.75-8.51-5.71-14.37-5.92
	v13.03c1.76,0.22,3.23,1.04,4.4,2.48c1.38,1.7,2.06,3.65,2.06,5.87c0,2.27-0.66,4.22-1.98,5.85c-1.43,1.74-3.24,2.61-5.43,2.61
	c-2.22,0-4.04-0.87-5.47-2.61c-1.35-1.63-2.02-3.58-2.02-5.85c0-2.24,0.67-4.18,2.02-5.81c1.2-1.46,2.68-2.3,4.44-2.54v-13.04
	c-6.06,0.19-10.92,2.19-14.54,6.04c-3.82,4.06-5.72,9.34-5.72,15.85c0,0.6,0.03,1.18,0.07,1.76h-4.79c0.01-0.31,0.05-0.61,0.05-0.92
	c0-3.06-1-6.13-2.99-9.22c-0.17-0.22-2.04-2.58-5.6-7.07c-2.02-2.5-3.03-4.6-3.03-6.31c0-1.91,0.91-3.4,2.74-4.46
	c1.52-0.93,3.28-1.39,5.3-1.39c0.28,0,0.69,0.04,1.22,0.13c0.53,0.08,0.91,0.13,1.14,0.13c0.5,0,0.76-0.24,0.76-0.72
	c0-0.11-0.04-0.25-0.13-0.42c-2.67-5.36-4.36-9.06-5.09-11.11c-0.25-0.67-0.59-1.01-1.01-1.01c-0.17,0-0.41,0.01-0.72,0.04
	c-5.64,0.84-10.4,2.67-14.27,5.47c-4.74,3.4-7.11,7.66-7.11,12.8c0,3.54,0.97,6.76,2.9,9.68c0.28,0.42,2.08,2.54,5.39,6.36
	c1.91,2.25,2.86,4.28,2.86,6.1c0,2.86-1.46,5.02-4.38,6.48c-1.32,0.64-4.01,1.43-8.08,2.36c-0.42,0.08-0.63,0.28-0.63,0.59
	c0,0.87,1.11,3.28,3.33,7.22c2.22,3.94,3.65,5.91,4.29,5.91c0.14,0,0.32-0.01,0.55-0.04c6.03-0.98,11.16-3.27,15.36-6.86
	c4.03-3.41,6.34-7.41,6.99-11.97h5.14c0.63,4.59,2.52,8.48,5.72,11.63c3.98,3.93,9.06,5.89,15.24,5.89c6.37,0,11.51-1.99,15.43-5.98
	c3.91-3.99,5.87-9.18,5.87-15.58c0-3.92-0.76-7.39-2.26-10.4h4.88c0.06,1.72,0.16,3.19,0.28,4.38c0.03,0.45,0.43,0.67,1.22,0.67
	c0.2,0,0.51-0.02,0.95-0.04c0.43-0.03,0.75-0.04,0.95-0.04c1.12,0,1.68,0.41,1.68,1.22v23.19c0,0.98,0.48,1.56,1.43,1.73
	c0.95,0.17,3.02,0.25,6.19,0.25c3.82,0,6.2-0.06,7.16-0.17c0.79-0.09,1.18-0.42,1.18-1.01c0-1.99-0.1-4.77-0.29-8.34
	c-0.22-3.96-0.35-6.73-0.38-8.33c-0.08-3.76-0.17-6.69-0.25-8.8c1.74,0.17,4.13,0.25,7.16,0.25c0.73,0,1.09-0.34,1.09-1.01
	c0-1.12-0.01-2.76-0.03-4.84h2.05c-0.01,0.43-0.04,1-0.1,1.72c-0.07,0.93-0.11,1.62-0.11,2.06c0,0.76,0.53,1.14,1.6,1.14
	c0.11,0,0.29-0.01,0.55-0.04c0.25,0,0.43,0,0.55,0c1.43,0,2.15,0.62,2.15,1.85c0,1.85-0.07,4.64-0.21,8.36
	c-0.14,3.72-0.21,6.5-0.21,8.36c0,6.2,4.05,9.3,12.17,9.3c4.41,0,8.42-1,12.04-2.99c0.76-0.42,1.22-0.74,1.39-0.97
	c0.17-0.22,0.25-0.74,0.25-1.54c0-0.8,0.11-2.05,0.32-3.77c0.21-1.71,0.32-2.99,0.32-3.83c0-0.62-0.3-0.93-0.88-0.93
	c-0.53,0-1.45,0.16-2.76,0.49c-1.3,0.32-2.31,0.48-3.01,0.48c-2.22,0-3.71-0.6-4.46-1.81c-0.53-0.9-0.8-2.53-0.8-4.88
	c0-0.65-0.02-1.64-0.04-2.99c0-1.32,0-2.32,0-2.99c0-1.24,0.21-1.85,0.63-1.85h3.16c0.56,0,1.5,0.02,2.82,0.06s2.26,0.06,2.82,0.06
	c0.81,0,1.22-0.3,1.22-0.88c0-0.67-0.02-1.66-0.04-2.95c-0.01-0.55-0.02-1.03-0.03-1.47h3.54c-0.01,0.79-0.01,1.61-0.01,2.53
	c0,4.29,0.36,7.34,1.09,9.13c1.18,2.81,3.13,6.54,5.85,11.2c3.34,5.7,5.71,8.74,7.11,9.13c0.62,0.17,1.99,0.25,4.13,0.25
	c3,0,4.84-0.36,5.51-1.09c1.29-1.4,3.7-5.26,7.24-11.58c3.34,6.15,5.81,10.01,7.41,11.58c0.45,0.42,0.94,0.7,1.47,0.84
	c0.65,0.17,2.19,0.25,4.63,0.25c2.95,0,4.8-0.41,5.56-1.22c1.12-1.21,3.17-4.32,6.15-9.34c2.92-4.88,4.74-8.22,5.47-10.02
	c0.7-1.71,1.05-4.76,1.05-9.13c0-1.25-0.01-2.39-0.03-3.41h6.33c-2.01,3.3-3.08,7.29-3.21,11.95h14.3c0.03-2.35,0.76-4.29,2.22-5.81
	c1.49-1.54,3.44-2.32,5.85-2.32c2.41,0,4.37,0.78,5.87,2.34c1.5,1.56,2.25,3.53,2.25,5.91c0,2.41-0.76,4.4-2.27,5.96
	c-1.52,1.56-3.47,2.34-5.85,2.34c-2.25,0-4.15-0.81-5.73-2.44c-1.26-1.31-2.01-2.82-2.26-4.55h-14.39
	c0.1,5.39,1.78,10.06,5.07,13.98c3.59,4.32,8.13,6.48,13.6,6.48c3.59,0,6.96-1.58,10.1-4.76c0.37-0.36,0.66-0.6,0.88-0.72
	c0.25,0.03,0.47,0.85,0.65,2.46c0.18,1.61,0.54,2.42,1.07,2.42c4.49,0,8.48-0.13,11.95-0.38c0.98-0.08,1.47-0.69,1.47-1.81
	c0-2.13-0.13-5.33-0.38-9.6c-0.25-4.26-0.38-7.48-0.38-9.64c0-4.1,0.24-8.03,0.71-11.82h7.54c0.5,3.29,0.76,7.06,0.76,11.32
	c0,2.24-0.02,5.6-0.04,10.08c-0.03,4.48-0.04,7.84-0.04,10.08c0,0.81,0.46,1.28,1.39,1.39c1.6,0.17,3.73,0.25,6.4,0.25
	c2.78,0,4.84-0.06,6.19-0.17c0.93-0.09,1.39-0.47,1.39-1.14c0-0.79-0.06-1.98-0.17-3.6c-0.11-1.61-0.17-2.83-0.17-3.64
	c0-1.21-0.02-3.04-0.06-5.5c-0.04-2.45-0.06-4.29-0.06-5.49c0-2.22,0.42-3.69,1.26-4.42c0.84-0.73,2.43-1.09,4.76-1.09
	c0.5,0,1.27,0.04,2.29,0.11c1.02,0.07,1.8,0.11,2.34,0.11c1.21,0,1.81-0.55,1.81-1.64c0-0.53-0.03-1.63-0.08-3.28
	c-0.03-1.35-0.04-2.43-0.04-3.24c0-0.04,0.01-0.09,0.01-0.12h6.27c-2.04,3.49-3.07,7.61-3.07,12.37c0,6.62,2.1,11.91,6.31,15.87
	c4.1,3.9,9.49,5.85,16.16,5.85c7.21,0,12.53-1.84,15.95-5.51c0.42-0.45,0.63-0.77,0.63-0.97c0-0.7-0.7-2.34-2.08-4.93
	c-1.39-2.58-2.38-4.01-2.97-4.29c-1.07,0.67-2.13,1.35-3.2,2.02c-2.53,1.35-5.04,2.02-7.53,2.02c-2.08,0-3.93-0.39-5.56-1.18
	c-1.99-0.95-3.19-2.34-3.58-4.17c6.57-0.51,11.51-0.94,14.82-1.3C458.36,504.1,461.27,503.8,461.57,503.74z"/>
</svg>
