<?xml version="1.0" ?>
<svg xmlns="http://www.w3.org/2000/svg" xmlns:ev="http://www.w3.org/2001/xml-events" xmlns:xlink="http://www.w3.org/1999/xlink" baseProfile="full" height="371px" version="1.1" viewBox="520.2646775302965 1585.3246010221483 2135.386758141214 1320.0075190532812" width="600px">
	<defs/>
	<path d="M 2462.344582618984,2687.3095306204627 C 2472.0537646290077,2685.228991618315 2476.961702787921,2676.586752686316 2476.9617027879203,2661.489508132269 C 2476.9617027879203,2632.6286978717044 2466.9324378544893,2607.6622298459297 2446.873907987628,2586.696798362747 C 2426.8153781207666,2565.731366879564 2402.435728787905,2555.2753247149235 2373.681612835143,2555.2753247149235 C 2372.774711218822,2555.2753247149235 2371.9211567564025,2555.3820190227257 2371.0142551400813,2555.382019022726 L 2371.0142551400813,2613.370375313361 C 2377.5759550699327,2614.597359853089 2383.4441419990676,2617.9048833949655 2388.512121619684,2623.2929459389893 C 2395.0738215495353,2630.3347702539513 2398.3813450914113,2638.4968848008393 2398.3813450914117,2647.779289579653 C 2398.3813450914117,2649.433051350591 2395.9273760119554,2650.6066887364177 2390.9660906991408,2651.353548891035 C 2367.6000372904027,2654.821113894615 2350.368906580306,2656.5282228194546 2339.326045722752,2656.5282228194546 C 2335.111620564555,2656.5282228194546 2333.031081562407,2654.501030971208 2333.031081562407,2650.446647274715 C 2333.031081562407,2640.5774238029876 2335.858480719172,2631.9351848709885 2341.5666261866036,2624.6266247865206 C 2346.6879529611215,2618.011577702768 2353.0362642753676,2614.3306240835836 2360.398171513737,2613.2103338516577 L 2360.398171513737,2555.8621434078377 C 2332.337568561691,2558.4761539489978 2309.398292384163,2569.6257091143543 2291.4736486733505,2589.3641560578085 C 2288.752943824388,2592.3515966762775 2286.298974744931,2595.445731602548 2283.951699973277,2598.6465608366225 L 2245.061624779282,2598.6465608366225 C 2245.2750133948866,2596.1392446032646 2245.541749164393,2593.418539754302 2245.8618320878,2590.2710576741297 C 2246.7687337041207,2582.3223317428465 2247.1955109353307,2576.1874090442057 2247.1955109353307,2571.866289578206 C 2247.1955109353307,2568.2920302668235 2242.9810857771336,2566.478227034182 2234.6055826146408,2566.478227034182 C 2221.2687941393337,2566.478227034182 2207.4518812789156,2570.425916422873 2193.048149725584,2578.2679480463535 C 2178.697765326154,2586.109979669834 2172.5094954736114,2590.057669058525 2174.6433816296603,2590.0576690585244 C 2172.6695369353147,2590.0576690585244 2171.3358580877843,2585.3631195152166 2170.5889979331673,2575.9206732746993 C 2169.8421377785503,2566.478227034182 2168.135028853711,2561.783677490874 2165.414324004748,2561.783677490874 C 2164.667463850131,2561.783677490874 2152.4509656067494,2564.1309522625284 2128.8181764285055,2568.7721546519347 C 2112.9207245659395,2571.17277657749 2100.9176149381633,2572.826538348428 2092.6488060834727,2573.7334399647493 C 2090.408225619621,2574.4803001193663 2089.287935387695,2575.974020428601 2089.2879353876956,2578.214600892452 C 2089.2879353876956,2579.1215025087727 2089.4479768493993,2580.2417927406987 2089.714712618905,2581.5754715882294 C 2091.2084329281392,2586.910186978352 2092.54211177567,2592.671679599685 2093.715749161497,2598.6999079905236 L 2056.426088584539,2598.6999079905236 C 2057.0662544313536,2594.165399908919 2057.7064202781685,2589.630891827315 2058.5066275866866,2585.1497308996113 C 2058.933404817896,2582.5890675123524 2059.2001405874025,2581.0420000492168 2059.2001405874025,2580.4551813563035 C 2059.2001405874025,2578.9614610470694 2058.079850355477,2577.734476507341 2055.8392698916255,2576.880922044921 C 2049.3842642695768,2574.8003830427733 2038.7681806432324,2572.2397196555144 2023.9376718586907,2569.2522790370454 C 2008.360302919532,2566.104796956873 1997.7975664470891,2564.5577294937375 1992.3028095952625,2564.5577294937375 C 1989.9021876697072,2564.5577294937375 1987.8216486675594,2568.185335959021 1986.11453974272,2575.440548889588 C 1984.4074308178806,2582.6957618201554 1982.860363354745,2586.323368285439 1981.5266845072142,2586.323368285439 C 1981.0999072760044,2586.323368285439 1980.5664357369922,2585.9499382081303 1979.9796170440784,2585.203078053513 C 1966.3760927992653,2568.7188074980336 1947.811283241638,2560.5033457972445 1924.2851883711965,2560.5033457972445 C 1890.463092797818,2560.5033457972445 1863.789515847204,2571.4395123469963 1844.3178046732555,2593.3118454465 C 1842.7707372101197,2595.07230152524 1841.3837112086878,2596.939451911783 1839.996685207256,2598.7532551444247 L 1799.506195396224,2598.7532551444247 C 1799.1327653189155,2587.176922747858 1798.4392523181996,2579.388238278279 1797.4256563940762,2575.5472431973903 C 1796.3587133160518,2571.3861651930947 1793.851397082694,2569.2522790370454 1789.7970133862007,2569.2522790370454 C 1782.9152305329421,2569.2522790370454 1772.5125355222028,2569.46566765265 1758.6956226617847,2569.9457920377613 C 1744.8253626474652,2570.372569268971 1734.476014790627,2570.6393050384772 1727.5942319373687,2570.6393050384772 C 1724.6067913189,2570.6393050384772 1723.1130710096656,2573.2533155796373 1723.1130710096659,2578.481336661958 C 1723.1130710096659,2625.800262172347 1722.7929880862584,2652.3137976612575 1722.206169393345,2657.9685959747876 C 1721.779392162135,2662.022979671281 1718.0450913890493,2670.5585242954776 1711.0032670740868,2683.575229847377 C 1703.6413598357174,2697.2321012460916 1698.6267273690019,2704.0071897915473 1695.9593696739405,2704.0071897915477 C 1693.2386648249778,2704.0071897915477 1688.54411528167,2697.285448399993 1681.8223738901152,2683.788618462982 C 1676.2742698843874,2672.5323689898228 1672.7000105730053,2664.4236015968363 1671.046248802067,2659.3022748223184 C 1669.87261141624,2655.247891125825 1669.2324455694254,2645.592056269703 1669.2324455694256,2630.334770253952 C 1669.2324455694256,2624.6266247865206 1669.6058756467341,2615.9843858545214 1670.3527358013512,2604.408053457955 C 1671.0995959559682,2592.831721061388 1671.473026033277,2584.189482129389 1671.473026033277,2578.481336661958 C 1671.473026033277,2574.320258657662 1669.819264262339,2571.972983886008 1666.5117407204627,2571.492859500897 C 1655.575574170711,2571.0660822696873 1647.2534181621193,2570.906040807983 1641.5986198485891,2571.0660822696873 L 1635.7837800733555,2571.0660822696873 L 1635.3570028421457,2571.0660822696873 L 1626.127945217233,2571.279470885292 C 1613.698058358247,2571.439512346996 1605.3759023496552,2571.492859500897 1601.2148243453596,2571.4928595008973 C 1597.74725934178,2571.4928595008973 1596.0401504169404,2573.8401342725515 1596.0401504169402,2578.481336661958 C 1596.0401504169402,2582.8558032818587 1596.46692764815,2589.4708503656107 1597.2671349566685,2598.326477913215 C 1598.0673422651869,2607.23545261472 1598.494119496397,2613.957194006275 1598.494119496397,2618.4383549339777 C 1598.494119496397,2639.990605110074 1597.587217880076,2653.4874350470845 1595.8267618013356,2658.9821918989114 C 1594.0129585686939,2664.4236015968368 1590.2253106417065,2672.7991047593296 1584.3571237125716,2684.002007078587 C 1577.1552579359056,2697.338795553894 1572.247319776993,2704.0071897915477 1569.5266149280303,2704.0071897915477 C 1567.7128116953886,2704.0071897915477 1562.9649149981792,2697.232101246092 1555.2829248364023,2683.68192415518 C 1547.5475875207244,2670.1317470642675 1543.5465509781322,2661.7028967478736 1543.2798152086261,2658.3953732059977 C 1542.3729135923052,2649.6997871200974 1541.9461363610953,2636.3096514908893 1541.9461363610953,2618.2249663183734 C 1541.9461363610953,2613.903846852374 1542.1061778227988,2607.2887997686216 1542.3729135923052,2598.326477913215 C 1542.6929965157126,2589.41750321171 1542.799690823515,2582.8024561279576 1542.7996908235148,2578.481336661958 C 1542.7996908235148,2573.5200513491436 1541.0925818986755,2571.0660822696873 1537.6250168950955,2571.0660822696873 C 1530.743234041837,2571.0660822696873 1520.3938861849988,2570.8526936540825 1506.630320478482,2570.3725692689713 C 1492.8667547719651,2569.9457920377617 1482.517406915127,2569.6790562682554 1475.6356240618686,2569.6790562682554 C 1471.4211989036714,2569.6790562682554 1468.8071883625116,2571.652900962601 1467.7935924383878,2575.4938960434893 C 1466.7799965142644,2579.7083212016864 1466.0864835135485,2589.0974202883026 1465.7664005901413,2603.3944575338314 L 1446.7214666474028,2603.3944575338314 C 1446.8281609552052,2599.980239684153 1447.1482438786127,2595.392384448647 1447.8417568793284,2589.41750321171 C 1448.5886170339454,2582.5357203584513 1448.9620471112542,2577.3610464300327 1448.9620471112542,2573.9468285803537 C 1448.9620471112542,2571.706248116502 1447.3082853403162,2570.585957884576 1444.00076179844,2570.5859578845766 C 1438.612699254416,2570.5859578845766 1430.6106261692319,2570.7993465001814 1419.9945425428873,2571.2794708852925 C 1409.378458916543,2571.706248116502 1401.4297329852598,2571.9729838860085 1396.2017119029397,2571.9729838860085 C 1391.88059243694,2571.9729838860085 1389.6933591269897,2568.2920302668235 1389.6933591269897,2560.983470182355 C 1389.6933591269897,2554.848547483714 1390.1734835121006,2545.726184166604 1391.187079436224,2533.6163802310252 C 1392.147328206446,2521.5065762954464 1392.627452591557,2512.4375601322376 1392.6274525915571,2506.4626788953005 C 1392.6274525915571,2504.222098431449 1390.760302205014,2502.9417667378193 1387.026001431928,2502.621683814412 C 1383.7184778900519,2502.2482537371034 1380.677690117682,2501.874823659795 1377.7435966531143,2501.5013935824863 L 1377.7435966531143,2385.3112923856115 C 1396.8952249036552,2399.4482881694366 1419.9411953889858,2406.5968067922017 1446.9882024169085,2406.5968067922013 C 1480.9703394519909,2406.5968067922013 1508.390776557222,2395.980723165857 1529.3028608865034,2374.6952087592667 C 1550.2149452157848,2353.463041506578 1560.6176402265244,2325.722521477939 1560.6176402265244,2291.5803429811535 C 1560.6176402265244,2271.4151188064893 1556.8299922995373,2253.5971694034793 1549.361390753365,2237.913106156518 L 1574.7012888564484,2237.913106156518 C 1575.0213717798558,2246.288609319011 1575.5014961649667,2253.543822249578 1576.1416620117814,2259.465356332614 C 1576.3017034734848,2261.8659782581694 1578.4355896295342,2263.0396156439965 1582.6500147877314,2263.039615643997 C 1583.7169578657558,2263.039615643997 1585.370719636694,2262.986268490096 1587.717994408348,2262.8262270283917 C 1590.0119220261008,2262.666185566688 1591.7190309509401,2262.612838412787 1592.7859740289646,2262.612838412787 C 1598.7608552659021,2262.612838412787 1601.748295884371,2264.8000717227374 1601.748295884371,2269.1211911887367 L 1601.748295884371,2392.8865882395858 C 1601.748295884371,2398.1146093219063 1604.3089592716299,2401.2087442481775 1609.3769388922467,2402.115645864498 C 1614.4449185128633,2403.022547480819 1625.4877793704175,2403.449324712029 1642.3988271571068,2403.449324712029 C 1662.7774399473758,2403.449324712029 1675.4740625758682,2403.1292417886216 1680.5953893503863,2402.5424230957083 C 1684.756467354682,2402.1156458644987 1686.8903535107313,2400.3018426318567 1686.8903535107313,2397.154360551684 C 1686.8903535107313,2386.5382769253397 1686.3568819717188,2371.707768140798 1685.2899388936944,2352.716181351961 C 1684.1163015078673,2331.590708407075 1683.4227885071514,2316.7601996225335 1683.2627470454477,2308.224654998337 C 1682.8359698142378,2288.1661251314754 1682.3558454291267,2272.5354090384153 1681.9290681979169,2261.279159565256 C 1691.2114729767306,2262.186061181577 1703.961442759124,2262.612838412787 1720.1256303911964,2262.612838412787 C 1724.0199726259862,2262.612838412787 1725.94047016643,2260.7990351801454 1725.94047016643,2257.224775868763 C 1725.94047016643,2250.182951553801 1725.8337758586276,2239.620215081358 1725.727081550825,2225.429872143631 C 1725.5670400891215,2211.292876359806 1725.51369293522,2200.6767927334613 1725.51369293522,2193.6349684184993 C 1725.51369293522,2190.3274448766233 1723.2731124713682,2188.673683105685 1718.7919515436654,2188.673683105685 C 1714.3107906159623,2188.673683105685 1707.6423963783088,2188.833724567389 1698.786768830705,2189.1004603368947 C 1689.931141283101,2189.420543260302 1683.4227885071512,2189.5272375681043 1679.2617105028553,2189.5272375681047 C 1678.5148503482383,2185.2061181021054 1678.1414202709295,2180.564915712698 1678.1414202709295,2175.603630399884 C 1678.1414202709295,2159.8662199990217 1680.5953893503859,2149.3034835265785 1685.5566746632003,2143.9154209825547 C 1688.3840738199651,2140.7679389023824 1695.9593696739396,2138.527358438531 1708.2292150712221,2137.193679591 C 1718.8452986975665,2136.1267365129756 1724.1800140876894,2133.8328088952226 1724.1800140876894,2130.2585495838402 C 1724.1800140876894,2127.2711089653712 1723.4865010869735,2123.003336653273 1722.1528222394427,2117.4552326475455 C 1720.339019006801,2110.2533668708797 1719.378770236579,2106.092288866584 1719.2187287748752,2104.8653043268555 C 1716.9781483110235,2091.688557313252 1715.2710393861844,2081.7126395337227 1714.0440548464558,2074.9908981421677 C 1713.4572361535422,2073.177094909526 1711.6434329209005,2072.270193293205 1708.6559923024317,2072.2701932932055 C 1693.1319705171743,2072.2701932932055 1679.208363348954,2073.7639136024395 1666.6717821821653,2076.591312759205 L 1666.6717821821653,2025.0046149367172 C 1700.5472249094453,2024.951267782816 1727.9143148607752,2014.3351841564715 1748.7730520361554,1993.1030169037826 C 1768.6181932874124,1972.9377927291187 1778.914193990349,1946.8510344714177 1779.8744427605711,1915.056130746286 L 1796.5721019316554,1915.056130746286 C 1797.0522263167663,1946.9043816253193 1807.6149627892096,1973.0978341908221 1828.3670056567873,1993.5297941349925 C 1849.5991729094762,2014.495225618175 1876.6995270913,2024.9512677828156 1909.668068202259,2024.9512677828156 C 1943.6502052373414,2024.9512677828156 1971.0706423425725,2014.3351841564713 1991.982726671854,1993.049669749881 C 2011.827867923111,1972.8844455752171 2022.1238686260476,1946.7976873175162 2023.0841173962697,1915.0027835923845 L 2052.7451349653525,1915.0027835923845 C 2052.6917878114514,1923.805063986087 2052.5850935036487,1933.7276346117155 2052.425052041945,1944.8771897770723 C 2052.1049691185376,1971.444072419884 2051.9982748107354,1991.3959079789433 2051.9982748107354,2004.7326964542503 C 2051.9982748107354,2010.707577691188 2051.9982748107354,2013.9617540791628 2051.9982748107354,2014.3885313103726 C 2052.425052041945,2017.6960548522488 2054.2922024284885,2019.7232467004953 2057.5997259703645,2020.4701068551126 C 2062.5610112831787,2021.6437442409397 2073.9773022180416,2022.2839100877543 2091.9552930827554,2022.2839100877543 C 2109.453159562358,2022.2839100877543 2121.6163106518384,2021.6970913948408 2128.338052043393,2020.4701068551126 C 2132.072352816479,2019.883288162199 2133.939503203022,2018.0161377756563 2133.939503203022,2014.8686556954835 C 2133.939503203022,2010.6542305372864 2133.726114587417,2004.7860436081514 2133.245990202306,1997.1040534463748 C 2132.8192129710965,1988.728550283882 2132.55247720159,1982.8070162008457 2132.55247720159,1979.3394511972658 C 2132.2323942781827,1957.4671180977623 2132.1256999703805,1926.0989916038402 2132.12569997038,1885.2350717154995 C 2132.12569997038,1835.515524279555 2134.046197510824,1778.3273752974383 2137.940539745614,1713.67062476915 L 2138.153928361219,1709.6162410726567 C 2138.4740112846266,1706.4687589924845 2136.713555205886,1704.9216915293487 2132.9792544327997,1704.9216915293487 L 2052.798482119254,1704.9216915293487 C 2048.9041398844643,1704.9216915293487 2046.9836423440204,1706.5754533002867 2046.9836423440204,1709.8829768421629 C 2046.9836423440204,1710.7898784584838 2047.1436838057239,1712.0702101521133 2047.4104195752302,1713.7239719230515 C 2050.717943117106,1737.6768440247029 2052.5850935036497,1766.2175713618599 2053.0118707348593,1799.2928067806215 C 2052.8518292731555,1793.7447027748938 2052.7984821192545,1822.4454715737543 2052.798482119254,1885.288418869401 C 2052.798482119254,1890.8365228751288 2052.745134965353,1897.664958574486 2052.691787811452,1905.613684505769 L 2022.9774230884677,1905.613684505769 C 2022.0705214721468,1873.818780780637 2011.7745207692096,1847.7320225229364 1991.715990902348,1827.46010404047 C 1971.9241968049926,1807.4549213275095 1946.317562932403,1796.998879162869 1915.0561307462833,1795.931936084844 L 1915.0561307462833,1865.443277618144 C 1924.4452298328995,1866.6169150039711 1932.28726145638,1870.9913816238718 1938.5288784628235,1878.6733717856487 C 1945.8374385472919,1887.7423879488574 1949.5183921664766,1898.1984301134983 1949.5183921664764,1909.9881511256697 C 1949.5183921664764,1922.0979550612483 1945.9974800089951,1932.500650071988 1938.955655694033,1941.1962361578883 C 1931.3270126861576,1950.478640936702 1921.6711778300353,1955.1198433261088 1909.9881511256663,1955.1198433261088 C 1898.1450829595935,1955.1198433261088 1888.43590094957,1950.478640936702 1880.8072579416944,1941.1962361578883 C 1873.6053921650284,1932.500650071988 1870.0311328536463,1922.0979550612487 1870.0311328536466,1909.9881511256697 C 1870.0311328536466,1897.9850414978935 1873.605392165029,1887.6890407949563 1880.8072579416944,1878.993454709056 C 1887.2089164098418,1871.2047702394768 1895.1042951872234,1866.7236093117735 1904.4933942738396,1865.4966247720456 L 1904.4933942738396,1795.931936084844 C 1872.1650190096955,1796.9455320089673 1846.2383022136985,1807.614962789213 1826.926632501454,1828.153617041186 C 1807.9883928665179,1848.2654940619489 1797.959127933087,1874.1922108579458 1796.6254490855563,1905.66703165967 L 1779.7677484527683,1905.66703165967 C 1778.8608468364473,1873.8721279345382 1768.5648461335102,1847.7853696768375 1748.5063162666484,1827.513451194371 C 1728.7145221692929,1807.5082684814106 1703.1078882967033,1797.05222631677 1671.8464561105836,1795.9852832387453 L 1671.8464561105836,1865.4966247720454 C 1681.2355551971998,1866.6702621578725 1689.0775868206804,1871.0447287777731 1695.3192038271238,1878.72671893955 C 1702.6277639115922,1887.7957351027587 1706.308717530777,1898.2517772673996 1706.308717530777,1910.0414982795708 C 1706.308717530777,1922.1513022151494 1702.7878053732957,1932.5539972258891 1695.7459810583337,1941.2495833117894 C 1688.117338050458,1950.5319880906031 1678.4615031943358,1955.17319048001 1666.7784764899668,1955.17319048001 C 1654.935408323894,1955.17319048001 1645.2262263138705,1950.5319880906031 1637.597583305995,1941.2495833117894 C 1630.395717529329,1932.5539972258891 1626.8214582179469,1922.1513022151498 1626.8214582179469,1910.0414982795708 C 1626.8214582179469,1898.0383886517945 1630.3957175293292,1887.7423879488574 1637.597583305995,1879.0468018629574 C 1643.9992417741423,1871.2581173933781 1651.894620551524,1866.7769564656749 1661.2837196381402,1865.5499719259467 L 1661.2837196381402,1795.9852832387453 C 1628.955344373996,1796.9988791628687 1603.028627577999,1807.6683099431143 1583.7169578657545,1828.206964195087 C 1564.7787182308184,1848.31884121585 1554.7494532973876,1874.245558011847 1553.4157744498568,1905.7203788135714 L 1527.1689747304526,1905.7203788135714 L 1527.3290161921561,1857.7612874563672 C 1527.3290161921561,1839.0364364370362 1520.3938861849965,1824.3126219602973 1506.4169318628747,1813.536496872249 C 1493.5602677726786,1803.5072319388182 1477.502774448409,1798.4925994721027 1458.351146197868,1798.4925994721027 C 1447.2549381864128,1798.4925994721027 1435.8386472515497,1801.106610013263 1423.9955790854772,1806.3346310955835 C 1416.0468531541942,1809.9088904069658 1407.7780442995038,1814.8168285658787 1399.0824582136038,1820.95175126452 C 1391.7205509752343,1826.1797723468405 1387.9329030482472,1828.7937828880006 1387.6128201248398,1828.7937828880008 C 1386.1190998156055,1828.7937828880008 1385.372239660988,1827.3000625787665 1385.372239660988,1824.3126219602977 C 1385.372239660988,1804.6808693246458 1385.7990168921979,1777.9539452201307 1386.7059185085188,1744.131849646752 C 1386.7059185085188,1740.6642846431723 1387.0260014319263,1734.1559318672223 1387.6128201248398,1724.6067913189024 C 1388.1996388177533,1716.391329618113 1388.5197217411608,1709.8829768421635 1388.5197217411608,1705.0817329910528 C 1388.5197217411608,1701.9342509108806 1387.3460843553337,1700.3871834477447 1384.9454624297784,1700.3871834477447 L 1344.2949311570426,1705.0817329910528 C 1342.3744336165983,1705.4018159144603 1335.3859564555376,1705.7752459917688 1323.4361939816624,1706.2020232229786 C 1314.473872126256,1706.522106146386 1307.6454364268989,1707.3223134549044 1303.0042340374919,1708.655992302435 C 1300.7636535736403,1709.402852457052 1299.6433633417146,1710.8965727662867 1299.6433633417146,1713.137153230138 C 1299.6433633417146,1714.044054846459 1299.8567519573194,1715.484428001792 1300.3368763424305,1717.4049255422362 C 1302.2573738828748,1726.68733032105 1303.6443998843067,1737.8368854864066 1304.391260038924,1750.8535910383061 C 1304.7113429623314,1762.0564933575642 1305.08477303964,1773.312742830723 1305.5115502708497,1784.515645149981 C 1306.045021809862,1800.5197913203494 1306.4184518871705,1818.6044764928658 1306.6851876566768,1838.8230478214311 L 1273.2365221606067,1838.8230478214311 C 1277.3442530110012,1824.312621960297 1279.424792013149,1816.043813105607 1279.424792013149,1814.1766627190639 C 1279.424792013149,1812.2561651786195 1277.5042944727047,1810.228973330373 1273.6099522379152,1808.095087174324 C 1256.6989044512259,1798.4925994721027 1237.067151815574,1793.7447027748935 1214.7680414848605,1793.7447027748935 C 1181.9595418356053,1793.7447027748935 1154.8591876537814,1804.9476050941516 1133.3602846315866,1827.300062578766 C 1111.8613816093916,1849.7058672172818 1101.138603675245,1877.2863457842168 1101.138603675245,1910.0414982795708 C 1101.138603675245,1911.74860720441 1101.2986451369486,1913.402368975348 1101.35199229085,1915.0561307462863 L 1076.1187884955689,1915.0561307462863 C 1075.692011264359,1899.4254146532264 1070.4106430281374,1883.7946985601666 1060.2746837869042,1868.0039410054032 C 1059.3677821705835,1866.8303036195762 1049.3918643910538,1854.2403752988864 1030.4002776022166,1830.2875031972349 C 1019.6241525141685,1816.9507147219279 1014.2360899701446,1805.7478124026698 1014.2360899701445,1796.62544908556 C 1014.2360899701445,1786.4361426904252 1019.0906809751561,1778.4874167591424 1028.853210139081,1772.8326184456125 C 1036.9619775320677,1767.8713331327983 1046.351076618684,1765.417364053342 1057.127201706732,1765.4173640533418 C 1058.6209220159665,1765.4173640533418 1060.8081553259167,1765.6307526689468 1063.6355544826818,1766.1108770540577 C 1066.4629536394468,1766.5376542852675 1068.4901454876936,1766.8043900547736 1069.7171300274217,1766.8043900547736 C 1072.384487722483,1766.8043900547736 1073.771513723915,1765.5240583611442 1073.771513723915,1762.963394973885 C 1073.771513723915,1762.3765762809714 1073.5581251083102,1761.6297161263542 1073.078000723199,1760.7228145100335 C 1058.8343106315713,1732.1287400189751 1049.8186416222634,1712.3902930755207 1045.9242993874739,1701.454126525769 C 1044.590620539943,1697.8798672143866 1042.7768173073014,1696.066063981745 1040.5362368434498,1696.066063981745 C 1039.629335227129,1696.066063981745 1038.3490035334994,1696.119411135646 1036.6952417625614,1696.27945259735 C 1006.6074469622688,1700.760613525053 981.2142017052842,1710.523142688978 960.568853145509,1725.4603457813218 C 935.2823021963269,1743.5983781077393 922.6390267217358,1766.3242656696627 922.6390267217358,1793.744702774894 C 922.6390267217358,1812.6295952559287 927.8137006501549,1829.8073788121242 938.109701353092,1845.3847477512827 C 939.6034216623264,1847.6253282151345 949.2059093645474,1858.9349248421947 966.8638173058538,1879.3135376324637 C 977.0531237009883,1891.31664726024 982.1211033216051,1902.1461195021893 982.1211033216051,1911.8553015122131 C 982.1211033216051,1927.1125875279645 974.3324188520257,1938.6355727706296 958.7550499128672,1946.424257240209 C 951.7132255979052,1949.8918222437887 937.3628411984748,1954.0529002480846 915.6505495606749,1959.0141855608988 C 913.4099690968234,1959.4409627921086 912.2896788648976,1960.507905870133 912.2896788648975,1962.1616676410713 C 912.2896788648975,1966.802870030478 918.2112129479339,1979.659534120674 930.0542811140066,2000.678312757758 C 941.8973492800792,2021.697091394842 949.5259922879549,2032.206480713384 952.9402101376334,2032.2064807133838 C 953.6870702922505,2032.2064807133838 954.6473190624727,2032.1531335594827 955.8743036022009,2031.9930920977788 C 988.0426374046415,2026.7650710154583 1015.4097273559714,2014.5485727720773 1037.8155319944874,1995.3969445215364 C 1061.341626864929,1975.445108962477 1073.931555185619,1951.812319784233 1075.852052726063,1924.4985769868042 L 1101.9921581376648,1924.4985769868042 C 1104.7128629866274,1951.2255010913195 1115.115557997367,1974.058082961045 1133.3069374776856,1992.9429754420796 C 1154.699146192078,2015.0820443110892 1181.9061946817042,2026.1782523225447 1214.821388638762,2026.178252322545 C 1223.677016186366,2026.178252322545 1235.2533485829324,2024.6311848594091 1249.657080136264,2021.4837027792369 C 1268.2218896938914,2017.4293190827436 1277.5042944727052,2012.5747280777316 1277.5042944727052,2006.8665826103004 C 1277.5042944727052,2001.158437142869 1275.7971855478659,1989.6354519002036 1272.329620544286,1972.2976268823045 C 1268.2752368477927,1953.3060400934673 1264.9677133059165,1943.7568995451472 1262.4603970725589,1943.7568995451472 C 1262.8871743037687,1943.7568995451472 1258.992832068979,1945.4640084699865 1250.7773703681898,1948.8248791657638 C 1242.5619086674008,1952.1857498615411 1235.14665427513,1953.8928587863804 1228.5316071913778,1953.8928587863804 C 1214.6080000231573,1953.8928587863804 1203.298403396097,1949.9451693976896 1194.6028173101968,1942.1031377742092 C 1185.9072312242965,1934.2611061507287 1181.5861117582972,1923.4316339087795 1181.5861117582972,1909.6680682022627 C 1181.5861117582972,1896.3312797269557 1185.533801146988,1885.66184894671 1193.482527078271,1877.6597758615258 C 1201.431253009554,1869.6577027763415 1212.0473366358983,1865.6566662337495 1225.3841251112053,1865.6566662337495 C 1230.932229116933,1865.6566662337495 1238.1340948935988,1866.8303036195766 1247.0430695951038,1869.2309255451319 C 1255.9520442966088,1871.631547470687 1260.4865523782134,1872.8051848565142 1260.6465938399172,1872.8051848565142 C 1261.980272687448,1872.8051848565142 1263.3139515349785,1871.2581173933784 1264.594283228608,1868.110635313206 C 1265.6612263066324,1865.5499719259471 1267.6884181548794,1858.8815776882936 1270.675858773348,1848.265494061949 L 1306.8452291183805,1848.265494061949 C 1307.0586177339853,1866.030096311058 1307.1119648878866,1885.2350717155002 1307.1119648878866,1906.040461736979 C 1307.1119648878866,1917.8835299030518 1307.0586177339856,1935.6481321521608 1306.8985762722818,1959.387615638207 C 1306.7385348105781,1983.1270991242536 1306.685187656677,2000.8917013733624 1306.685187656677,2012.734769539435 C 1306.685187656677,2016.7891532359283 1309.4058925056397,2019.4031637770886 1314.7939550496637,2020.576801162916 C 1320.1820175936878,2021.750438548743 1329.0376451412915,2022.3906043955576 1341.307490538574,2022.3906043955574 C 1362.6996992529664,2022.3906043955574 1375.7697519587673,2022.07052147215 1380.410954348174,2021.4837027792364 C 1385.0521567375808,2020.8968840863229 1387.3460843553337,2017.8027491600517 1387.346084355334,2012.254645154324 C 1387.346084355334,2005.052779377658 1387.1860428936304,1994.2766542896102 1386.919307124124,1979.8195755823774 C 1386.5992242007167,1965.3624968751446 1386.4925298929143,1954.5330246331953 1386.4925298929145,1947.3845060104309 L 1386.4925298929145,1891.9034659531537 C 1386.4925298929145,1886.1953204857223 1390.9203436667162,1880.7539107877972 1399.722624060419,1875.5258897054769 C 1407.8313914534056,1870.7246458543664 1414.8198686144665,1868.324023928811 1420.8480970053054,1868.324023928811 C 1438.6660464083154,1868.324023928811 1447.5750211098207,1877.0729571686122 1447.5750211098205,1894.570823648215 C 1447.5750211098205,1907.4274877384112 1447.3616324942154,1926.8458517584581 1446.8815081091045,1952.7192214005536 C 1446.4547308778947,1978.6459381965506 1446.1879951083886,1998.0109550626962 1446.1879951083886,2010.867619152892 C 1446.1879951083886,2016.4157231586198 1448.6953113417464,2019.6165523926934 1453.6032495006593,2020.5234540090144 C 1460.0582551227078,2021.6970913948414 1471.474546057571,2022.337257241656 1487.9588166130502,2022.337257241656 C 1505.0299058614432,2022.337257241656 1515.966072411195,2022.0171743182486 1520.713969108404,2021.430355625335 C 1524.9283942666011,2020.8435369324216 1527.008933268749,2017.9094434678539 1527.008933268749,2012.6814223855338 L 1527.2756690382553,1915.1094779001874 L 1553.3624272959557,1915.1094779001874 C 1553.8425516810667,1946.9577287792206 1564.40528815351,1973.1511813447235 1585.1573310210874,1993.5831412888938 C 1604.1489178099246,2012.3079923082248 1627.7817069881687,2022.603993011162 1656.109045709721,2024.5778377055074 L 1656.109045709721,2079.472059069871 C 1637.8109719215997,2085.233551691204 1623.0338102909595,2094.355915008314 1612.0976437412078,2107.052537636806 C 1602.068378807777,2118.7355643411747 1597.0537463410615,2137.460415360506 1597.0537463410615,2163.173743540898 C 1597.0537463410615,2169.8954849324527 1597.42717641837,2179.284584019069 1598.174036572987,2191.234346492944 C 1592.9460154906665,2191.5544294163515 1587.7713415622477,2191.92785949366 1582.703361941631,2192.3546367248696 C 1576.9952164741997,2193.5282741106967 1574.1678173174346,2196.9424919603753 1574.1678173174346,2202.4372488122017 C 1574.1678173174346,2211.93304220662 1574.274511625237,2220.521933984718 1574.4879002408418,2228.310618454297 L 1544.4001054405494,2228.310618454297 C 1540.1856802823522,2221.322141293236 1535.171047815637,2214.8137885172864 1529.3028608865018,2208.8389072803493 C 1509.5110667891463,2188.833724567389 1483.9044329165567,2178.377682402748 1452.643000730437,2177.3107393247233 L 1452.643000730437,2246.822080858023 C 1462.0320998170532,2247.99571824385 1469.8741314405338,2252.370184863751 1476.1157484469772,2260.052175025528 C 1483.4243085314456,2269.1211911887367 1487.1052621506303,2279.577233353378 1487.1052621506303,2291.3669543655487 C 1487.1052621506303,2303.4767583011276 1483.584349993149,2313.879453311867 1476.542525678187,2322.5750393977673 C 1468.9138826703115,2331.857444176581 1459.2580478141892,2336.498646565988 1447.5750211098202,2336.498646565988 C 1435.7319529437475,2336.498646565988 1426.022770933724,2331.8574441765813 1418.3941279258484,2322.5750393977673 C 1411.1922621491824,2313.879453311867 1407.6180028378003,2303.4767583011276 1407.6180028378003,2291.3669543655487 C 1407.6180028378003,2279.3638447377725 1411.1922621491826,2269.067844034835 1418.3941279258484,2260.3722579489354 C 1424.7957863939957,2252.5835734793563 1432.6911651713774,2248.102412551653 1442.0802642579936,2246.8754280119247 L 1442.0802642579936,2177.3107393247233 C 1409.7518889938494,2178.3243352488466 1383.8251721978525,2188.993766029092 1364.513502485608,2209.5324202810652 C 1344.1348896953389,2231.191364764964 1333.9455833002044,2259.358662024812 1333.9455833002044,2294.087659214512 C 1333.9455833002044,2327.0028531715698 1344.5616669265487,2353.996513045591 1365.847181333139,2374.908597374872 C 1366.3273057182498,2375.388721759983 1366.8607772572623,2375.7621518372916 1367.340901642373,2376.242276222403 L 1367.340901642373,2499.9543261193508 C 1361.4193675593365,2499.2074659647337 1356.5114294004236,2498.567300117919 1352.617087165634,2498.0338285789067 C 1349.3095636237579,2497.713745655499 1343.3880295407216,2496.5934554235737 1334.852484916525,2494.672957883129 C 1327.383883370353,2492.8591546504877 1321.6223907490205,2491.9522530341665 1317.5680070525273,2491.9522530341665 C 1314.260483510651,2491.9522530341665 1312.606721739713,2500.6478391200667 1312.6067217397128,2517.9856641379656 C 1312.6067217397128,2517.078762521645 1312.9268046631203,2526.3078201465573 1313.5136233560338,2545.619489858802 C 1313.8337062794412,2557.8893352560845 1313.5136233560338,2566.8516571114906 1312.6067217397128,2572.5598025789222 C 1312.179944508503,2575.387201735687 1309.2458510439355,2576.934269198823 1303.8577884999115,2577.0409635066253 C 1294.2553007976903,2577.3610464300327 1289.5074041004812,2579.014808200971 1289.5074041004814,2582.0022488194395 C 1289.5074041004814,2585.1497308996118 1289.667445562185,2589.9509747507227 1290.094222793395,2596.35263321887 C 1290.2542642550986,2598.913296606129 1290.360958562901,2601.1005299160793 1290.4143057168023,2603.1277217643255 L 1279.584833474853,2603.1277217643255 C 1279.4781391670506,2590.751182059241 1279.3714448592482,2581.255388664822 1279.371444859248,2574.800383042774 C 1279.371444859248,2571.492859500898 1277.1308643953964,2569.8390977299596 1272.6497034676934,2569.8390977299596 C 1268.16854253999,2569.8390977299596 1261.5001483023366,2569.9991391916633 1252.6445207547329,2570.265874961169 C 1243.788893207129,2570.5859578845766 1237.2805404311791,2570.692652192379 1233.1194624268835,2570.692652192379 C 1232.3726022722665,2566.3715327263794 1231.9991721949577,2561.730330336972 1231.9991721949575,2556.7690450241585 C 1231.9991721949575,2541.031634623296 1234.453141274414,2530.468898150853 1239.4144265872283,2525.0808356068287 C 1242.2418257439933,2521.9333535266564 1249.8171215979676,2519.692773062805 1262.0869669952501,2518.359094215274 C 1272.7030506215945,2517.2921511372497 1278.0377660117174,2514.9982235194966 1278.0377660117174,2511.370617054213 C 1278.0377660117174,2508.383176435744 1277.3442530110015,2504.115404123646 1276.0105741634707,2498.5673001179184 C 1274.196770930829,2491.3654343412527 1273.2365221606067,2487.204356336957 1273.0764806989032,2485.977371797229 C 1270.8359002350517,2472.8006247836256 1269.1287913102124,2462.824707004096 1267.901806770484,2456.1029656125406 C 1267.3149880775704,2454.289162379899 1265.5011848449287,2453.382260763578 1262.51374422646,2453.3822607635784 C 1218.075565026737,2453.3822607635784 1185.8538840703952,2465.011940314046 1165.9553956652371,2488.164605107179 C 1155.9261307318063,2499.8476318115477 1150.9114982650908,2518.572482830879 1150.911498265091,2544.2858110112707 C 1150.911498265091,2551.0075524028252 1151.2849283423996,2560.3966514894414 1152.0317884970168,2572.3464139633165 C 1146.8037674146965,2572.666496886724 1141.6290934862775,2573.0399269640325 1136.5611138656607,2573.466704195242 C 1130.8529683982292,2574.640341581069 1128.0255692414642,2578.0545594307478 1128.0255692414642,2583.549316282574 C 1128.0255692414642,2592.2982495223755 1128.1322635492666,2600.30032260756 1128.2923050109703,2607.608882692028 L 1097.1909142865543,2607.608882692028 C 1093.1898777439621,2601.313918531683 1088.495328200654,2595.445731602548 1083.1072656566303,2589.950974750722 C 1063.3154715592746,2569.9457920377613 1037.7088376866852,2559.4897498731207 1006.4474055005654,2558.3694596411947 L 1006.4474055005654,2627.8808011744945 C 1015.8365045871815,2629.0544385603216 1023.6785362106621,2633.4289051802225 1029.9201532171057,2641.1108953419994 C 1037.2820604554752,2650.179911505208 1040.9096669207588,2660.5826065159476 1040.9096669207588,2672.42567468202 C 1040.9096669207588,2684.535478617599 1037.3887547632778,2694.9381736283385 1030.3469304483158,2703.6337597142387 C 1022.7182874404401,2712.9161644930523 1013.0624525843178,2717.5573668824595 1001.3794258799488,2717.557366882459 C 989.5363577138762,2717.557366882459 979.8271757038527,2712.9161644930523 972.1985326959771,2703.6337597142387 C 964.9966669193113,2694.9381736283385 961.4224076079289,2684.535478617599 961.4224076079289,2672.42567468202 C 961.4224076079289,2660.475912208145 964.9966669193111,2650.1265643513066 972.1985326959771,2641.430978265407 C 978.6001911641243,2633.6422937958278 986.4955699415062,2629.1611328681242 995.8846690281223,2627.8808011744945 L 995.8846690281223,2558.316112487293 C 963.556293763978,2559.3297084114165 937.6295769679813,2569.999139191662 918.3179072557367,2590.537793443635 C 897.9392944654676,2612.196737927534 887.8033352242343,2640.364035187382 887.8033352242343,2675.0930323770817 C 887.8033352242343,2678.2938616111555 887.963376685938,2681.3879965374267 888.1767653015429,2684.4821314636974 L 862.6234785828547,2684.4821314636974 C 862.6768257367559,2682.828369692759 862.8902143523609,2681.2279550757225 862.8902143523609,2679.5741933047843 C 862.8902143523609,2663.2499642110083 857.5554989622381,2646.8723879633317 846.9394153358936,2630.388117407852 C 846.0325137195728,2629.214480022025 836.0565959400432,2616.6245517013353 817.0650091512059,2592.671679599684 C 806.2888840631578,2579.334891124377 800.9008215191338,2568.131988805119 800.9008215191338,2559.009625488009 C 800.9008215191338,2548.8203190928743 805.7554125241455,2540.8715931615916 815.5179416880703,2535.2167948480615 C 823.626709081057,2530.2555095352473 833.0158081676732,2527.801540455791 843.7919332557213,2527.801540455791 C 845.2856535649557,2527.801540455791 847.4728868749061,2528.0149290713957 850.3002860316711,2528.495053456507 C 853.1276851884362,2528.9218306877165 855.1548770366828,2529.188566457223 856.381861576411,2529.188566457223 C 859.0492192714723,2529.188566457223 860.4362452729042,2527.908234763593 860.4362452729043,2525.347571376334 C 860.4362452729043,2524.7607526834204 860.2228566572994,2524.0138925288034 859.7427322721884,2523.1069909124826 C 845.4990421805605,2494.5129164214245 836.4833731712529,2474.77446947797 832.5890309364632,2463.838302928218 C 831.2553520889326,2460.264043616836 829.4415488562908,2458.4502403841943 827.2009683924393,2458.450240384194 C 826.2940667761185,2458.450240384194 825.013735082489,2458.503587538095 823.3599733115509,2458.663628999799 C 793.2721785112583,2463.144789927502 767.8789332542736,2472.9073190914273 747.2335846944984,2487.844522183771 C 721.9470337453163,2505.9825545101885 709.3037582707252,2528.7084420721117 709.3037582707251,2556.1288791773427 C 709.3037582707251,2575.0137716583777 714.4784321991442,2592.191555214573 724.7744329020813,2607.768924153732 C 726.2681532113157,2610.0095046175834 735.8706409135368,2621.319101244644 753.5285488548432,2641.6977140349127 C 763.7178552499777,2653.700823662689 768.7858348705945,2664.530295904638 768.7858348705945,2674.239477914662 C 768.7858348705945,2689.496763930413 760.9971504010151,2701.0197491730783 745.4197814618566,2708.8084336426577 C 738.3779571468946,2712.2226514923364 724.0275727474642,2716.4370766505335 702.3152811096643,2721.3983619633477 C 700.0747006458128,2721.8251391945573 698.954410413887,2722.892082272582 698.9544104138869,2724.54584404352 C 698.9544104138869,2729.1870464329268 704.8759444969232,2742.0437105231226 716.719012662996,2763.062489160207 C 728.5620808290686,2784.0812677972913 736.1907238369442,2794.5906571158325 739.6049416866227,2794.5906571158325 C 740.3518018412399,2794.5906571158325 741.312050611462,2794.5373099619314 742.5390351511903,2794.3772685002277 C 774.7073689536309,2789.149247417907 802.0744589049608,2776.932749174526 824.4802635434766,2757.7811209239853 C 845.9791665656714,2739.5897414436668 858.3023591168552,2718.250879883175 861.769924120435,2693.924577704215 L 889.1903612256662,2693.924577704215 C 892.5512319214434,2718.4109213448787 902.6338440087757,2739.1629642124567 919.7049332571686,2755.9673176913434 C 940.9371005098573,2776.9327491745257 968.0374546916812,2787.388791339167 1001.0059958026402,2787.388791339167 C 1034.9881328377226,2787.388791339167 1062.4085699429536,2776.7727077128225 1083.3206542722353,2755.4871933062323 C 1104.1793914476154,2734.201678899642 1114.6354336122563,2706.5145060249047 1114.635433612256,2672.372327528119 C 1114.635433612256,2651.4602431988374 1110.5810499157628,2632.948780795112 1102.5789768305785,2616.8912874708417 L 1128.612387934378,2616.8912874708417 C 1128.9324708577853,2626.066997941853 1129.4659423967976,2633.9090295653336 1130.1061082436122,2640.2573408795797 C 1130.266149705316,2642.657962805135 1132.400035861365,2643.831600190962 1136.614461019562,2643.831600190962 C 1137.6814040975864,2643.831600190962 1139.3351658685247,2643.72490588316 1141.6824406401788,2643.6182115753572 C 1143.9763682579317,2643.4581701136535 1145.683477182771,2643.4048229597524 1146.7504202607954,2643.404822959752 C 1152.725301497733,2643.404822959752 1155.7127421162018,2645.5920562697024 1155.7127421162018,2649.913175735702 L 1155.7127421162018,2773.62522563265 C 1155.7127421162018,2778.8532467149707 1158.2734055034607,2781.9473816412415 1163.3413851240773,2782.8542832575627 C 1168.409364744694,2783.7611848738834 1179.4522256022483,2784.1879621050934 1196.3632733889374,2784.1879621050934 C 1216.7418861792064,2784.1879621050934 1229.4385088076988,2783.8678791816865 1234.5598355822167,2783.2810604887727 C 1238.7742607404136,2782.8009361036616 1240.8547997425617,2781.040480024921 1240.8547997425617,2777.892997944749 C 1240.8547997425617,2767.2769143184046 1240.3213282035495,2752.446405533863 1239.307732279426,2733.4014715911244 C 1238.134094893599,2712.2759986462383 1237.440581892883,2697.498837015598 1237.2805404311796,2688.9632923914014 C 1236.8537631999698,2668.90476252454 1236.3736388148589,2653.2740464314797 1235.9468615836488,2642.017796958321 C 1245.2292663624626,2642.9246985746418 1257.979236144856,2643.351475805852 1274.143423776928,2643.3514758058514 C 1278.0377660117176,2643.3514758058514 1279.958263552162,2641.53767257321 1279.958263552162,2637.9634132618276 C 1279.958263552162,2631.98853202489 1279.9049163982609,2623.2395987850887 1279.7982220904582,2612.143390773633 L 1290.73438864021,2612.143390773633 C 1290.681041486309,2614.4373183913863 1290.5210000246052,2617.478106163756 1290.2009171011978,2621.3191012446446 C 1289.8274870238893,2626.2803865574588 1289.6140984082842,2629.9613401766437 1289.6140984082842,2632.3086149482974 C 1289.6140984082842,2636.362998644791 1292.4414975650493,2638.390190493037 1298.1496430324808,2638.3901904930376 C 1298.7364617253943,2638.3901904930376 1299.6967104956163,2638.3368433391365 1301.0837364970482,2638.1768018774324 C 1302.417415344579,2638.1768018774324 1303.377664114801,2638.1768018774324 1304.017829961616,2638.1768018774324 C 1311.6464729694915,2638.1768018774324 1315.48746805038,2641.4843254193083 1315.48746805038,2648.0460253491597 C 1315.48746805038,2657.915248820887 1315.1140379730714,2672.7991047593296 1314.3671778184541,2692.644246010587 C 1313.620317663837,2712.4893872618436 1313.2468875865284,2727.3198960463847 1313.2468875865284,2737.242466672013 C 1313.2468875865284,2770.3177020907747 1334.8524849165258,2786.855319800155 1378.1703738843228,2786.855319800155 C 1401.6964687547645,2786.855319800155 1423.088677469157,2781.5206044100323 1442.4003471814015,2770.9045207836875 C 1446.4547308778947,2768.663940319836 1448.9086999573515,2766.9568313949967 1449.8156015736722,2765.7298468552685 C 1450.7225031899932,2764.5562094694415 1451.149280421203,2761.7821574665777 1451.1492804212028,2757.5143851544794 C 1451.1492804212028,2753.2466128423816 1451.7360991141163,2746.578218604728 1452.856389346042,2737.4025081337168 C 1453.9766795779678,2728.280144816607 1454.5634982708814,2721.4517091172497 1454.5634982708814,2716.970548189546 C 1454.5634982708814,2713.66302464767 1452.9630836538445,2712.009262876732 1449.8689487275733,2712.009262876732 C 1447.0415495708085,2712.009262876732 1442.1336114118953,2712.8628173391517 1435.1451342508344,2714.623273417892 C 1428.2100042436748,2716.3303823427314 1422.8219416996508,2717.183936805151 1419.0876409265647,2717.1839368051515 C 1407.244572760492,2717.1839368051515 1399.2958468292093,2713.9831075710777 1395.2948102866171,2707.528101949029 C 1392.4674111298523,2702.7268580979185 1391.0270379745189,2694.0312720120182 1391.0270379745189,2681.49469084523 C 1391.0270379745189,2678.02712584165 1390.9203436667165,2672.7457576054285 1390.8136493589138,2665.5438918287623 C 1390.8136493589138,2658.5020675138003 1390.8136493589138,2653.1673521236776 1390.8136493589138,2649.5930928122953 C 1390.8136493589138,2642.978045728543 1391.9339395908396,2639.723869340568 1394.1745200546911,2639.723869340568 L 1411.0322206874794,2639.723869340568 C 1414.0196613059481,2639.723869340568 1419.0342937726637,2639.83056364837 1426.0761180876257,2640.0439522639754 C 1433.1179424025877,2640.25734087958 1438.1325748693032,2640.364035187383 1441.120015487772,2640.364035187383 C 1445.4411349537716,2640.364035187383 1447.628368263722,2638.763620570346 1447.628368263722,2635.6694856440745 C 1447.628368263722,2632.095226332692 1447.5216739559196,2626.8138580964705 1447.414979648117,2619.9320752432122 C 1447.3616324942159,2616.9979817786448 1447.3082853403146,2614.437318391386 1447.2549381864135,2612.0900436197317 L 1466.1398306674482,2612.0900436197317 C 1466.0864835135471,2616.304468777929 1466.0864835135471,2620.6789353978293 1466.0864835135471,2625.5868735567424 C 1466.0864835135471,2648.4728025803693 1468.0069810539915,2664.7436845202437 1471.9013232887808,2674.2928250685636 C 1478.1962874491257,2689.283375314809 1488.598982459865,2709.1818637199667 1503.1094083209994,2734.0416374379392 C 1520.9273577240094,2764.4495151616393 1533.5706331986005,2780.6670499476127 1541.0392347447726,2782.7475889497605 C 1544.3467582866488,2783.654490566081 1551.655318371117,2784.0812677972913 1563.0716093059798,2784.0812677972913 C 1579.0757554763481,2784.0812677972913 1588.8916317941741,2782.160770256847 1592.4658911055565,2778.266428022057 C 1599.347673958815,2770.7978264758854 1612.2043380490109,2750.205825070011 1631.0892305300456,2716.490423804435 C 1648.9071799330557,2749.2989234536903 1662.0839269466592,2769.890924859564 1670.6194715708557,2778.266428022057 C 1673.020093496411,2780.5070084859085 1675.6341040375712,2782.000728795143 1678.4615031943363,2782.7475889497605 C 1681.929068197916,2783.654490566081 1690.1445298987053,2784.0812677972913 1703.1612354506049,2784.0812677972913 C 1718.898645851467,2784.0812677972913 1728.7678693231944,2781.8940344873413 1732.8222530196877,2777.572915021341 C 1738.7971342566252,2771.1179093992923 1749.733300806377,2754.5269445360104 1765.630752668943,2727.7466732775943 C 1781.2081216081017,2701.713262173795 1790.917303618125,2683.8953127707846 1794.8116458529148,2674.2928250685636 C 1798.5459466260006,2665.170461751454 1800.4130970125439,2648.8995798115793 1800.4130970125439,2625.586873556743 C 1800.4130970125439,2618.9184793190893 1800.3597498586428,2612.8369037743496 1800.2530555508401,2607.395494076424 L 1834.0218039703175,2607.395494076424 C 1823.2990260361707,2625.000054863829 1817.5908805687393,2646.2855692704193 1816.8973675680234,2671.1453429883913 L 1893.1837976467796,2671.1453429883913 C 1893.343839108483,2658.6087618216025 1897.2381813432728,2648.2594139647645 1905.0268658128523,2640.1506465717775 C 1912.9755917441353,2631.9351848709885 1923.3782867548748,2627.774106866693 1936.234950845071,2627.774106866693 C 1949.091614935267,2627.774106866693 1959.5476570999076,2631.9351848709885 1967.549730185092,2640.25734087958 C 1975.5518032702762,2648.579496888172 1979.5528398128681,2659.0888862067136 1979.5528398128681,2671.7855088352057 C 1979.5528398128681,2684.642172925402 1975.4984561163749,2695.258256551746 1967.4430358772895,2703.5804125603377 C 1959.334268484303,2711.9025685689294 1948.9315734735633,2716.063646573225 1936.234950845071,2716.063646573225 C 1924.2318412172947,2716.063646573225 1914.0958819760613,2711.7425271072257 1905.6670316596671,2703.0469410213254 C 1898.9452902681126,2696.0584638602645 1894.9442537255204,2688.003043621179 1893.6105748779896,2678.7739859962667 L 1816.8440204141225,2678.7739859962667 C 1817.377491953135,2707.5281019490285 1826.3398138085408,2732.4412228209017 1843.8910274420452,2753.3533071501834 C 1863.042655692586,2776.399277635514 1887.2622635637435,2787.922262878179 1916.4431567477154,2787.922262878179 C 1935.5947849982563,2787.922262878179 1953.57277586297,2779.4934125617847 1970.3237821879559,2762.5290176211947 C 1972.2976268823013,2760.6085200807506 1973.8446943454371,2759.328188387121 1975.018331731264,2758.688022540306 C 1976.3520105787948,2758.84806400201 1977.5256479646218,2763.2225306219107 1978.4858967348437,2771.8114224000083 C 1979.4461455050657,2780.400314178106 1981.36664304551,2784.721433644105 1984.194042202275,2784.721433644105 C 2008.1469143039267,2784.721433644105 2029.4324287105167,2784.0279206433893 2047.9438911142424,2782.6942417958585 C 2053.171912196563,2782.2674645646484 2055.785922737723,2779.0132881766735 2055.785922737723,2773.0384069397364 C 2055.785922737723,2761.675463158775 2055.092409737007,2744.6043739103816 2053.7587308894767,2721.825139194558 C 2052.425052041946,2699.0992516326346 2051.73153904123,2681.921468076439 2051.73153904123,2670.398482833774 C 2051.73153904123,2648.5261497342703 2053.0118707348597,2627.560718251088 2055.519186968217,2607.3421469225223 L 2095.742941009743,2607.3421469225223 C 2098.4102987048045,2624.8933605560264 2099.7973247062364,2645.005237576789 2099.7973247062364,2667.7311251387123 C 2099.7973247062364,2679.6808876125874 2099.690630398434,2697.6055313234 2099.583936090631,2721.5050562711504 C 2099.4238946289274,2745.4045812189 2099.3705474750263,2763.3292249297133 2099.3705474750263,2775.278987403588 C 2099.3705474750263,2779.6001068695873 2101.8245165544827,2782.107423102945 2106.785801867297,2782.6942417958585 C 2115.3213464914934,2783.601143412179 2126.684290272455,2784.0279206433893 2140.927980364083,2784.0279206433893 C 2155.758489148624,2784.0279206433893 2166.7480028522773,2783.7078377199823 2173.949868628943,2783.1210190270685 C 2178.911153941757,2782.6408946419574 2181.3651230212135,2780.6137027937107 2181.3651230212135,2777.039443482329 C 2181.3651230212135,2772.825018324132 2181.045040097806,2766.4767070098856 2180.458221404893,2757.8344680778864 C 2179.871402711979,2749.245576299789 2179.551319788572,2742.7372235238386 2179.5513197885716,2738.4161040578397 C 2179.5513197885716,2731.961098435791 2179.4446254807694,2722.1985692718663 2179.231236865164,2709.075169412164 C 2179.0178482495594,2696.0051167063634 2178.9111539417568,2686.189240388537 2178.9111539417568,2679.78758192039 C 2178.9111539417568,2667.944513754317 2181.1517344056083,2660.102482130837 2185.6328953333114,2656.208139896047 C 2190.1140562610144,2652.3137976612575 2198.59625373131,2650.3933001208134 2211.026140590296,2650.3933001208134 C 2213.6934982853577,2650.3933001208134 2217.801229135752,2650.606688736418 2223.2426388336776,2650.9801188137267 C 2228.684048531603,2651.353548891035 2232.8451265358985,2651.5669375066404 2235.7258728465645,2651.5669375066404 C 2242.180878468613,2651.5669375066404 2245.381707702687,2648.632844042073 2245.381707702687,2642.818004266839 C 2245.381707702687,2639.9906051100743 2245.2216662409833,2634.122418180939 2244.9549304714774,2625.3201377872365 C 2244.7948890097737,2618.1182720105708 2244.7415418558726,2612.356779389238 2244.741541855872,2608.0356599232387 C 2244.741541855872,2607.822271307634 2244.794889009773,2607.5555355381275 2244.794889009773,2607.395494076424 L 2278.2435545058433,2607.395494076424 C 2267.3607351099927,2626.0136507879524 2261.8659782581663,2647.9926781952586 2261.8659782581663,2673.385923452243 C 2261.8659782581663,2708.701739334856 2273.0688805774244,2736.922383748605 2295.528032369841,2758.0478566934917 C 2317.4003654693447,2778.8532467149703 2346.1544814221065,2789.2559417257103 2381.737033074226,2789.2559417257103 C 2420.2003310370114,2789.2559417257103 2448.5810169124647,2779.440065407884 2466.8257435466844,2759.8616599261336 C 2469.066324010536,2757.461038000578 2470.186614242462,2755.753929075739 2470.186614242462,2754.6869859977146 C 2470.186614242462,2750.9526852246286 2466.452313469376,2742.2037519848272 2459.0904062310065,2728.386839124409 C 2451.675151838736,2714.6232734178925 2446.3937836025143,2706.9946304100167 2443.2463015223416,2705.500910100782 C 2437.5381560549104,2709.0751694121645 2431.88335774138,2712.702775877448 2426.175212273949,2716.2770351888303 C 2412.6783823369383,2723.478900965496 2399.2882467077297,2727.0531602768783 2386.0048053863243,2727.053160276878 C 2374.908597374869,2727.053160276878 2365.0393739031415,2724.97262127473 2356.3437878172413,2720.758196116533 C 2345.727704190897,2715.690216495916 2339.3260457227493,2708.2749621036455 2337.245506720602,2698.512432939721 C 2372.2945868337088,2695.791728090758 2398.6480808609153,2693.4978004730056 2416.3059888022217,2691.577302932561 C 2445.22014621669,2689.230028160907 2460.744168001947,2687.62961354387 2462.344582618984,2687.3095306204627"/>
</svg>
